<svg xmlns="http://www.w3.org/2000/svg" xmlns:xlink="http://www.w3.org/1999/xlink" width="640" zoomAndPan="magnify" viewBox="0 0 480 749.999995" height="1000" preserveAspectRatio="xMidYMid meet" version="1.0"><defs><clipPath id="1f766ed6e1"><path d="M 0 0 L 480 0 L 480 750 L 0 750 Z M 0 0 " clip-rule="nonzero"/></clipPath><clipPath id="28d59c6e94"><rect x="0" width="480" y="0" height="750"/></clipPath><clipPath id="08f84c83ea"><path d="M 13.605469 262.304688 L 111.230469 262.304688 L 111.230469 720.042969 L 13.605469 720.042969 Z M 13.605469 262.304688 " clip-rule="nonzero"/></clipPath><clipPath id="99e83703a8"><path d="M 0.605469 0.304688 L 98.230469 0.304688 L 98.230469 458 L 0.605469 458 Z M 0.605469 0.304688 " clip-rule="nonzero"/></clipPath><clipPath id="6d9bbd9761"><rect x="0" width="99" y="0" height="459"/></clipPath><clipPath id="1425802ec0"><path d="M 144.527344 187.257812 L 293.753906 187.257812 L 293.753906 559.074219 L 144.527344 559.074219 Z M 144.527344 187.257812 " clip-rule="nonzero"/></clipPath><clipPath id="7f1b28437b"><path d="M 0.527344 0.257812 L 149.753906 0.257812 L 149.753906 372.074219 L 0.527344 372.074219 Z M 0.527344 0.257812 " clip-rule="nonzero"/></clipPath><clipPath id="c59d88b884"><rect x="0" width="150" y="0" height="373"/></clipPath><clipPath id="310db4f9d3"><path d="M 144.527344 187.261719 L 293.753906 187.261719 L 293.753906 559.074219 L 144.527344 559.074219 Z M 144.527344 187.261719 " clip-rule="nonzero"/></clipPath><clipPath id="010e6cff6f"><path d="M 217.960938 497.976562 L 316.609375 497.976562 L 316.609375 596.621094 L 217.960938 596.621094 Z M 217.960938 497.976562 " clip-rule="nonzero"/></clipPath><clipPath id="b2115f319e"><path d="M 267.285156 497.976562 C 240.042969 497.976562 217.960938 520.058594 217.960938 547.296875 C 217.960938 574.539062 240.042969 596.621094 267.285156 596.621094 C 294.523438 596.621094 316.609375 574.539062 316.609375 547.296875 C 316.609375 520.058594 294.523438 497.976562 267.285156 497.976562 Z M 267.285156 497.976562 " clip-rule="nonzero"/></clipPath><clipPath id="1636d8f19d"><path d="M 0.960938 0.976562 L 99.609375 0.976562 L 99.609375 99.621094 L 0.960938 99.621094 Z M 0.960938 0.976562 " clip-rule="nonzero"/></clipPath><clipPath id="ea24176527"><path d="M 50.285156 0.976562 C 23.042969 0.976562 0.960938 23.058594 0.960938 50.296875 C 0.960938 77.539062 23.042969 99.621094 50.285156 99.621094 C 77.523438 99.621094 99.609375 77.539062 99.609375 50.296875 C 99.609375 23.058594 77.523438 0.976562 50.285156 0.976562 Z M 50.285156 0.976562 " clip-rule="nonzero"/></clipPath><clipPath id="0e453e0e04"><rect x="0" width="100" y="0" height="100"/></clipPath><clipPath id="d91c120d37"><path d="M 217.960938 497.976562 L 316.597656 497.976562 L 316.597656 596.613281 L 217.960938 596.613281 Z M 217.960938 497.976562 " clip-rule="nonzero"/></clipPath><clipPath id="8ae47d3deb"><path d="M 267.28125 497.976562 C 240.042969 497.976562 217.960938 520.054688 217.960938 547.292969 C 217.960938 574.53125 240.042969 596.613281 267.28125 596.613281 C 294.515625 596.613281 316.597656 574.53125 316.597656 547.292969 C 316.597656 520.054688 294.515625 497.976562 267.28125 497.976562 Z M 267.28125 497.976562 " clip-rule="nonzero"/></clipPath><clipPath id="a758961485"><path d="M 219.144531 559.078125 L 313.296875 559.078125 L 313.296875 602.652344 L 219.144531 602.652344 Z M 219.144531 559.078125 " clip-rule="nonzero"/></clipPath><clipPath id="f557f0203c"><path d="M 0.144531 0.078125 L 94.296875 0.078125 L 94.296875 43.652344 L 0.144531 43.652344 Z M 0.144531 0.078125 " clip-rule="nonzero"/></clipPath><clipPath id="6bd8cbcb4c"><rect x="0" width="95" y="0" height="44"/></clipPath><clipPath id="c6e14c996f"><path d="M 280.480469 502.5625 L 329.695312 502.5625 L 329.695312 602.652344 L 280.480469 602.652344 Z M 280.480469 502.5625 " clip-rule="nonzero"/></clipPath><clipPath id="f7da974292"><path d="M 0.480469 0.5625 L 49.695312 0.5625 L 49.695312 100.652344 L 0.480469 100.652344 Z M 0.480469 0.5625 " clip-rule="nonzero"/></clipPath><clipPath id="1860b8cfb1"><rect x="0" width="50" y="0" height="101"/></clipPath><clipPath id="ab0b353325"><path d="M 85.894531 139.074219 L 183.984375 139.074219 L 183.984375 237.164062 L 85.894531 237.164062 Z M 85.894531 139.074219 " clip-rule="nonzero"/></clipPath><clipPath id="446238e2c1"><path d="M 134.941406 139.074219 C 107.851562 139.074219 85.894531 161.03125 85.894531 188.121094 C 85.894531 215.207031 107.851562 237.164062 134.941406 237.164062 C 162.027344 237.164062 183.984375 215.207031 183.984375 188.121094 C 183.984375 161.03125 162.027344 139.074219 134.941406 139.074219 Z M 134.941406 139.074219 " clip-rule="nonzero"/></clipPath><clipPath id="4fb46f5fc4"><path d="M 0.894531 0.0742188 L 98.984375 0.0742188 L 98.984375 98.164062 L 0.894531 98.164062 Z M 0.894531 0.0742188 " clip-rule="nonzero"/></clipPath><clipPath id="e52edccfad"><path d="M 49.941406 0.0742188 C 22.851562 0.0742188 0.894531 22.03125 0.894531 49.121094 C 0.894531 76.207031 22.851562 98.164062 49.941406 98.164062 C 77.027344 98.164062 98.984375 76.207031 98.984375 49.121094 C 98.984375 22.03125 77.027344 0.0742188 49.941406 0.0742188 Z M 49.941406 0.0742188 " clip-rule="nonzero"/></clipPath><clipPath id="44c47966a2"><rect x="0" width="99" y="0" height="99"/></clipPath><clipPath id="196239c1e7"><path d="M 85.894531 139.074219 L 183.980469 139.074219 L 183.980469 237.160156 L 85.894531 237.160156 Z M 85.894531 139.074219 " clip-rule="nonzero"/></clipPath><clipPath id="3e13b79881"><path d="M 134.9375 139.074219 C 107.851562 139.074219 85.894531 161.03125 85.894531 188.117188 C 85.894531 215.203125 107.851562 237.160156 134.9375 237.160156 C 162.023438 237.160156 183.980469 215.203125 183.980469 188.117188 C 183.980469 161.03125 162.023438 139.074219 134.9375 139.074219 Z M 134.9375 139.074219 " clip-rule="nonzero"/></clipPath><clipPath id="5a085da851"><path d="M 152.875 195.484375 L 285 195.484375 L 285 237.15625 L 152.875 237.15625 Z M 152.875 195.484375 " clip-rule="nonzero"/></clipPath><clipPath id="d63f34ae40"><path d="M 0.875 0.484375 L 133 0.484375 L 133 42.15625 L 0.875 42.15625 Z M 0.875 0.484375 " clip-rule="nonzero"/></clipPath><clipPath id="f0326434d4"><rect x="0" width="133" y="0" height="43"/></clipPath><clipPath id="6ebb1e8538"><path d="M 0 0 L 480 0 L 480 68 L 0 68 Z M 0 0 " clip-rule="nonzero"/></clipPath><clipPath id="f2f18e699f"><path d="M 503.367188 -98.070312 L 512.335938 -0.859375 L -224.421875 67.109375 L -233.390625 -30.105469 Z M 503.367188 -98.070312 " clip-rule="nonzero"/></clipPath><clipPath id="e1283c8522"><path d="M 0 0 L 480 0 L 480 67.199219 L 0 67.199219 Z M 0 0 " clip-rule="nonzero"/></clipPath><clipPath id="7c3d4b75ff"><path d="M 503.367188 -98.070312 L 512.335938 -0.859375 L -224.421875 67.109375 L -233.390625 -30.105469 Z M 503.367188 -98.070312 " clip-rule="nonzero"/></clipPath><clipPath id="c0f0788b23"><rect x="0" width="480" y="0" height="68"/></clipPath><clipPath id="1502b2f289"><path d="M 447.554688 132.632812 L 467.332031 132.632812 L 467.332031 634.515625 L 447.554688 634.515625 Z M 447.554688 132.632812 " clip-rule="nonzero"/></clipPath><clipPath id="41234cd473"><path d="M 0.554688 0.632812 L 20.332031 0.632812 L 20.332031 502.515625 L 0.554688 502.515625 Z M 0.554688 0.632812 " clip-rule="nonzero"/></clipPath><clipPath id="21f2b36094"><rect x="0" width="21" y="0" height="503"/></clipPath><clipPath id="cd90534e84"><path d="M 222.527344 39.890625 L 467.332031 39.890625 L 467.332031 133.382812 L 222.527344 133.382812 Z M 222.527344 39.890625 " clip-rule="nonzero"/></clipPath><clipPath id="e75903169b"><path d="M 0.527344 0.890625 L 245.332031 0.890625 L 245.332031 94.382812 L 0.527344 94.382812 Z M 0.527344 0.890625 " clip-rule="nonzero"/></clipPath><clipPath id="afdf624082"><rect x="0" width="246" y="0" height="95"/></clipPath><clipPath id="27071d8af8"><path d="M 445.886719 15.609375 L 467.332031 15.609375 L 467.332031 108.3125 L 445.886719 108.3125 Z M 445.886719 15.609375 " clip-rule="nonzero"/></clipPath><clipPath id="7f6d7ca4a6"><path d="M 0.886719 0.609375 L 22.332031 0.609375 L 22.332031 93.3125 L 0.886719 93.3125 Z M 0.886719 0.609375 " clip-rule="nonzero"/></clipPath><clipPath id="f784d10833"><rect x="0" width="23" y="0" height="94"/></clipPath><clipPath id="3e57bd591b"><path d="M 222 15 L 452 15 L 452 87 L 222 87 Z M 222 15 " clip-rule="nonzero"/></clipPath><clipPath id="03a27be6c0"><path d="M 222.53125 35.195312 L 446.945312 15.609375 L 451.433594 67.050781 L 227.019531 86.636719 Z M 222.53125 35.195312 " clip-rule="nonzero"/></clipPath><clipPath id="f7b4df10b3"><path d="M 0.480469 0.601562 L 229.441406 0.601562 L 229.441406 71.640625 L 0.480469 71.640625 Z M 0.480469 0.601562 " clip-rule="nonzero"/></clipPath><clipPath id="4fd29e16ce"><path d="M 0.53125 20.195312 L 224.945312 0.609375 L 229.433594 52.050781 L 5.019531 71.636719 Z M 0.53125 20.195312 " clip-rule="nonzero"/></clipPath><clipPath id="3e97919926"><rect x="0" width="230" y="0" height="72"/></clipPath><clipPath id="28079c199a"><path d="M 222.527344 35.769531 L 242.734375 35.769531 L 242.734375 112.425781 L 222.527344 112.425781 Z M 222.527344 35.769531 " clip-rule="nonzero"/></clipPath><clipPath id="dac7d11697"><path d="M 0.527344 0.769531 L 20.734375 0.769531 L 20.734375 77.425781 L 0.527344 77.425781 Z M 0.527344 0.769531 " clip-rule="nonzero"/></clipPath><clipPath id="5e3324bd49"><rect x="0" width="21" y="0" height="78"/></clipPath><clipPath id="23de451fa5"><path d="M 5 43 L 103 43 L 103 113 L 5 113 Z M 5 43 " clip-rule="nonzero"/></clipPath><clipPath id="180e0c6bdd"><path d="M 5.578125 50.484375 L 97.328125 43.050781 L 102.347656 105 L 10.597656 112.433594 Z M 5.578125 50.484375 " clip-rule="nonzero"/></clipPath><clipPath id="c02bf58226"><path d="M 0.519531 0 L 97.480469 0 L 97.480469 69.558594 L 0.519531 69.558594 Z M 0.519531 0 " clip-rule="nonzero"/></clipPath><clipPath id="c8575b4a89"><path d="M 0.578125 7.484375 L 92.328125 0.0507812 L 97.347656 62 L 5.597656 69.433594 Z M 0.578125 7.484375 " clip-rule="nonzero"/></clipPath><clipPath id="907b3c789e"><rect x="0" width="98" y="0" height="70"/></clipPath><clipPath id="d5aa7fdd9e"><path d="M 308.089844 408.367188 L 350.261719 408.367188 L 350.261719 427.480469 L 308.089844 427.480469 Z M 308.089844 408.367188 " clip-rule="nonzero"/></clipPath><clipPath id="0b00c9ae7c"><path d="M 0.0898438 0.367188 L 42.261719 0.367188 L 42.261719 19.480469 L 0.0898438 19.480469 Z M 0.0898438 0.367188 " clip-rule="nonzero"/></clipPath><clipPath id="adab583997"><rect x="0" width="43" y="0" height="20"/></clipPath><clipPath id="215daeccf3"><path d="M 373.511719 408.367188 L 415.683594 408.367188 L 415.683594 427.480469 L 373.511719 427.480469 Z M 373.511719 408.367188 " clip-rule="nonzero"/></clipPath><clipPath id="f4a19e8e9d"><path d="M 0.511719 0.367188 L 42.683594 0.367188 L 42.683594 19.480469 L 0.511719 19.480469 Z M 0.511719 0.367188 " clip-rule="nonzero"/></clipPath><clipPath id="83622ae194"><rect x="0" width="43" y="0" height="20"/></clipPath><clipPath id="096f5a7323"><path d="M 41.332031 487.027344 L 83.503906 487.027344 L 83.503906 506.140625 L 41.332031 506.140625 Z M 41.332031 487.027344 " clip-rule="nonzero"/></clipPath><clipPath id="b5f63d0e6d"><path d="M 0.332031 0.0273438 L 42.503906 0.0273438 L 42.503906 19.140625 L 0.332031 19.140625 Z M 0.332031 0.0273438 " clip-rule="nonzero"/></clipPath><clipPath id="74d129e510"><rect x="0" width="43" y="0" height="20"/></clipPath><clipPath id="69847e3963"><path d="M 308.089844 436.3125 L 350.261719 436.3125 L 350.261719 455.421875 L 308.089844 455.421875 Z M 308.089844 436.3125 " clip-rule="nonzero"/></clipPath><clipPath id="c01bc98c5c"><path d="M 0.0898438 0.3125 L 42.261719 0.3125 L 42.261719 19.421875 L 0.0898438 19.421875 Z M 0.0898438 0.3125 " clip-rule="nonzero"/></clipPath><clipPath id="036f9af145"><rect x="0" width="43" y="0" height="20"/></clipPath><clipPath id="f760f039cf"><path d="M 373.511719 436.3125 L 415.683594 436.3125 L 415.683594 455.421875 L 373.511719 455.421875 Z M 373.511719 436.3125 " clip-rule="nonzero"/></clipPath><clipPath id="c8d9c9deca"><path d="M 0.511719 0.3125 L 42.683594 0.3125 L 42.683594 19.421875 L 0.511719 19.421875 Z M 0.511719 0.3125 " clip-rule="nonzero"/></clipPath><clipPath id="2f7c15643f"><rect x="0" width="43" y="0" height="20"/></clipPath><clipPath id="746c7892bc"><path d="M 41.332031 514.972656 L 83.503906 514.972656 L 83.503906 534.082031 L 41.332031 534.082031 Z M 41.332031 514.972656 " clip-rule="nonzero"/></clipPath><clipPath id="72236a0511"><path d="M 0.332031 0.972656 L 42.503906 0.972656 L 42.503906 20.082031 L 0.332031 20.082031 Z M 0.332031 0.972656 " clip-rule="nonzero"/></clipPath><clipPath id="50f8574523"><rect x="0" width="43" y="0" height="21"/></clipPath><clipPath id="fcfe4ec8c1"><path d="M 41.332031 571.023438 L 83.503906 571.023438 L 83.503906 590.132812 L 41.332031 590.132812 Z M 41.332031 571.023438 " clip-rule="nonzero"/></clipPath><clipPath id="9be3059327"><path d="M 0.332031 0.0234375 L 42.503906 0.0234375 L 42.503906 19.132812 L 0.332031 19.132812 Z M 0.332031 0.0234375 " clip-rule="nonzero"/></clipPath><clipPath id="e982da6a4f"><rect x="0" width="43" y="0" height="20"/></clipPath><clipPath id="4eeb412f6f"><path d="M 308.089844 464.253906 L 350.261719 464.253906 L 350.261719 483.363281 L 308.089844 483.363281 Z M 308.089844 464.253906 " clip-rule="nonzero"/></clipPath><clipPath id="013c035749"><path d="M 0.0898438 0.253906 L 42.261719 0.253906 L 42.261719 19.363281 L 0.0898438 19.363281 Z M 0.0898438 0.253906 " clip-rule="nonzero"/></clipPath><clipPath id="cb4a2267d0"><rect x="0" width="43" y="0" height="20"/></clipPath><clipPath id="64a97eb162"><path d="M 373.511719 464.253906 L 415.683594 464.253906 L 415.683594 483.363281 L 373.511719 483.363281 Z M 373.511719 464.253906 " clip-rule="nonzero"/></clipPath><clipPath id="d835c9dbd2"><path d="M 0.511719 0.253906 L 42.683594 0.253906 L 42.683594 19.363281 L 0.511719 19.363281 Z M 0.511719 0.253906 " clip-rule="nonzero"/></clipPath><clipPath id="a6bf750cf7"><rect x="0" width="43" y="0" height="20"/></clipPath><clipPath id="1897b48294"><path d="M 41.332031 542.914062 L 83.503906 542.914062 L 83.503906 562.023438 L 41.332031 562.023438 Z M 41.332031 542.914062 " clip-rule="nonzero"/></clipPath><clipPath id="f80b5016ef"><path d="M 0.332031 0.914062 L 42.503906 0.914062 L 42.503906 20.023438 L 0.332031 20.023438 Z M 0.332031 0.914062 " clip-rule="nonzero"/></clipPath><clipPath id="ad801d7557"><rect x="0" width="43" y="0" height="21"/></clipPath><clipPath id="7fe962e0e6"><path d="M 41.332031 598.964844 L 83.503906 598.964844 L 83.503906 618.074219 L 41.332031 618.074219 Z M 41.332031 598.964844 " clip-rule="nonzero"/></clipPath><clipPath id="ffc05a7bd3"><path d="M 0.332031 0.964844 L 42.503906 0.964844 L 42.503906 20.074219 L 0.332031 20.074219 Z M 0.332031 0.964844 " clip-rule="nonzero"/></clipPath><clipPath id="bd9445ba64"><rect x="0" width="43" y="0" height="21"/></clipPath><clipPath id="7319c8da9a"><path d="M 308.089844 380.425781 L 350.261719 380.425781 L 350.261719 399.539062 L 308.089844 399.539062 Z M 308.089844 380.425781 " clip-rule="nonzero"/></clipPath><clipPath id="9e0a09f784"><path d="M 0.0898438 0.425781 L 42.261719 0.425781 L 42.261719 19.539062 L 0.0898438 19.539062 Z M 0.0898438 0.425781 " clip-rule="nonzero"/></clipPath><clipPath id="2a40a92aad"><rect x="0" width="43" y="0" height="20"/></clipPath><clipPath id="6e8b9b78e6"><path d="M 373.511719 380.425781 L 415.683594 380.425781 L 415.683594 399.539062 L 373.511719 399.539062 Z M 373.511719 380.425781 " clip-rule="nonzero"/></clipPath><clipPath id="a5acca3e9c"><path d="M 0.511719 0.425781 L 42.683594 0.425781 L 42.683594 19.539062 L 0.511719 19.539062 Z M 0.511719 0.425781 " clip-rule="nonzero"/></clipPath><clipPath id="5ff1e54d4c"><rect x="0" width="43" y="0" height="20"/></clipPath><clipPath id="bb5259a4b2"><path d="M 41.332031 459.085938 L 83.503906 459.085938 L 83.503906 478.195312 L 41.332031 478.195312 Z M 41.332031 459.085938 " clip-rule="nonzero"/></clipPath><clipPath id="57796929a9"><path d="M 0.332031 0.0859375 L 42.503906 0.0859375 L 42.503906 19.195312 L 0.332031 19.195312 Z M 0.332031 0.0859375 " clip-rule="nonzero"/></clipPath><clipPath id="7220624617"><rect x="0" width="43" y="0" height="20"/></clipPath><clipPath id="405c8b0d36"><path d="M 308.089844 352.484375 L 350.261719 352.484375 L 350.261719 371.59375 L 308.089844 371.59375 Z M 308.089844 352.484375 " clip-rule="nonzero"/></clipPath><clipPath id="b4ac9d94a3"><path d="M 0.0898438 0.484375 L 42.261719 0.484375 L 42.261719 19.59375 L 0.0898438 19.59375 Z M 0.0898438 0.484375 " clip-rule="nonzero"/></clipPath><clipPath id="86b250ad2c"><rect x="0" width="43" y="0" height="20"/></clipPath><clipPath id="6c7e46c5a2"><path d="M 373.511719 352.484375 L 415.683594 352.484375 L 415.683594 371.59375 L 373.511719 371.59375 Z M 373.511719 352.484375 " clip-rule="nonzero"/></clipPath><clipPath id="237b60bb7f"><path d="M 0.511719 0.484375 L 42.683594 0.484375 L 42.683594 19.59375 L 0.511719 19.59375 Z M 0.511719 0.484375 " clip-rule="nonzero"/></clipPath><clipPath id="6b621118b7"><rect x="0" width="43" y="0" height="20"/></clipPath><clipPath id="0df009b191"><path d="M 247.503906 63.300781 L 266.617188 63.300781 L 266.617188 105.476562 L 247.503906 105.476562 Z M 247.503906 63.300781 " clip-rule="nonzero"/></clipPath><clipPath id="db27dca9ce"><path d="M 0.503906 0.300781 L 19.617188 0.300781 L 19.617188 42.476562 L 0.503906 42.476562 Z M 0.503906 0.300781 " clip-rule="nonzero"/></clipPath><clipPath id="f9a50f810c"><rect x="0" width="20" y="0" height="43"/></clipPath><clipPath id="1bfc0aada9"><path d="M 41.332031 431.144531 L 83.503906 431.144531 L 83.503906 450.253906 L 41.332031 450.253906 Z M 41.332031 431.144531 " clip-rule="nonzero"/></clipPath><clipPath id="907dbc7b6d"><path d="M 0.332031 0.144531 L 42.503906 0.144531 L 42.503906 19.253906 L 0.332031 19.253906 Z M 0.332031 0.144531 " clip-rule="nonzero"/></clipPath><clipPath id="ba74b70744"><rect x="0" width="43" y="0" height="20"/></clipPath><clipPath id="a039fca017"><path d="M 308.089844 324.542969 L 350.261719 324.542969 L 350.261719 343.652344 L 308.089844 343.652344 Z M 308.089844 324.542969 " clip-rule="nonzero"/></clipPath><clipPath id="2c77dc917d"><path d="M 0.0898438 0.542969 L 42.261719 0.542969 L 42.261719 19.652344 L 0.0898438 19.652344 Z M 0.0898438 0.542969 " clip-rule="nonzero"/></clipPath><clipPath id="f3427bda8d"><rect x="0" width="43" y="0" height="20"/></clipPath><clipPath id="bfeffd095f"><path d="M 373.511719 324.542969 L 415.683594 324.542969 L 415.683594 343.652344 L 373.511719 343.652344 Z M 373.511719 324.542969 " clip-rule="nonzero"/></clipPath><clipPath id="b1ad3fb6f1"><path d="M 0.511719 0.542969 L 42.683594 0.542969 L 42.683594 19.652344 L 0.511719 19.652344 Z M 0.511719 0.542969 " clip-rule="nonzero"/></clipPath><clipPath id="c100ddc4f2"><rect x="0" width="43" y="0" height="20"/></clipPath><clipPath id="75bbbf048e"><path d="M 275.449219 63.300781 L 294.558594 63.300781 L 294.558594 105.476562 L 275.449219 105.476562 Z M 275.449219 63.300781 " clip-rule="nonzero"/></clipPath><clipPath id="6035c76ec4"><path d="M 0.449219 0.300781 L 19.558594 0.300781 L 19.558594 42.476562 L 0.449219 42.476562 Z M 0.449219 0.300781 " clip-rule="nonzero"/></clipPath><clipPath id="522aa400e8"><rect x="0" width="20" y="0" height="43"/></clipPath><clipPath id="3f58a826fb"><path d="M 41.332031 403.203125 L 83.503906 403.203125 L 83.503906 422.3125 L 41.332031 422.3125 Z M 41.332031 403.203125 " clip-rule="nonzero"/></clipPath><clipPath id="2ede525e6b"><path d="M 0.332031 0.203125 L 42.503906 0.203125 L 42.503906 19.3125 L 0.332031 19.3125 Z M 0.332031 0.203125 " clip-rule="nonzero"/></clipPath><clipPath id="ec30d6e39e"><rect x="0" width="43" y="0" height="20"/></clipPath><clipPath id="1708311c75"><path d="M 308.089844 296.601562 L 350.261719 296.601562 L 350.261719 315.710938 L 308.089844 315.710938 Z M 308.089844 296.601562 " clip-rule="nonzero"/></clipPath><clipPath id="9daad3a9e3"><path d="M 0.0898438 0.601562 L 42.261719 0.601562 L 42.261719 19.710938 L 0.0898438 19.710938 Z M 0.0898438 0.601562 " clip-rule="nonzero"/></clipPath><clipPath id="65dd48be9e"><rect x="0" width="43" y="0" height="20"/></clipPath><clipPath id="252e555631"><path d="M 373.511719 296.601562 L 415.683594 296.601562 L 415.683594 315.710938 L 373.511719 315.710938 Z M 373.511719 296.601562 " clip-rule="nonzero"/></clipPath><clipPath id="6fa31448a3"><path d="M 0.511719 0.601562 L 42.683594 0.601562 L 42.683594 19.710938 L 0.511719 19.710938 Z M 0.511719 0.601562 " clip-rule="nonzero"/></clipPath><clipPath id="3469998d26"><rect x="0" width="43" y="0" height="20"/></clipPath><clipPath id="eb684a1527"><path d="M 303.390625 63.300781 L 322.5 63.300781 L 322.5 105.476562 L 303.390625 105.476562 Z M 303.390625 63.300781 " clip-rule="nonzero"/></clipPath><clipPath id="c7f98e661a"><path d="M 0.390625 0.300781 L 19.5 0.300781 L 19.5 42.476562 L 0.390625 42.476562 Z M 0.390625 0.300781 " clip-rule="nonzero"/></clipPath><clipPath id="d37f166852"><rect x="0" width="20" y="0" height="43"/></clipPath><clipPath id="df7a6bc0b5"><path d="M 41.332031 375.261719 L 83.503906 375.261719 L 83.503906 394.371094 L 41.332031 394.371094 Z M 41.332031 375.261719 " clip-rule="nonzero"/></clipPath><clipPath id="79ce167b68"><path d="M 0.332031 0.261719 L 42.503906 0.261719 L 42.503906 19.371094 L 0.332031 19.371094 Z M 0.332031 0.261719 " clip-rule="nonzero"/></clipPath><clipPath id="1506968e56"><rect x="0" width="43" y="0" height="20"/></clipPath><clipPath id="4bd2be3095"><path d="M 308.089844 268.660156 L 350.261719 268.660156 L 350.261719 287.769531 L 308.089844 287.769531 Z M 308.089844 268.660156 " clip-rule="nonzero"/></clipPath><clipPath id="2fd153c2ed"><path d="M 0.0898438 0.660156 L 42.261719 0.660156 L 42.261719 19.769531 L 0.0898438 19.769531 Z M 0.0898438 0.660156 " clip-rule="nonzero"/></clipPath><clipPath id="b3bc08b5af"><rect x="0" width="43" y="0" height="20"/></clipPath><clipPath id="a19aba41b3"><path d="M 373.511719 268.660156 L 415.683594 268.660156 L 415.683594 287.769531 L 373.511719 287.769531 Z M 373.511719 268.660156 " clip-rule="nonzero"/></clipPath><clipPath id="71436ed4fc"><path d="M 0.511719 0.660156 L 42.683594 0.660156 L 42.683594 19.769531 L 0.511719 19.769531 Z M 0.511719 0.660156 " clip-rule="nonzero"/></clipPath><clipPath id="f05557fa5b"><rect x="0" width="43" y="0" height="20"/></clipPath><clipPath id="497a2f9877"><path d="M 331.332031 63.300781 L 350.441406 63.300781 L 350.441406 105.476562 L 331.332031 105.476562 Z M 331.332031 63.300781 " clip-rule="nonzero"/></clipPath><clipPath id="8c84587d9e"><path d="M 0.332031 0.300781 L 19.441406 0.300781 L 19.441406 42.476562 L 0.332031 42.476562 Z M 0.332031 0.300781 " clip-rule="nonzero"/></clipPath><clipPath id="9ffbd45b60"><rect x="0" width="20" y="0" height="43"/></clipPath><clipPath id="16bfbac5f1"><path d="M 41.332031 347.320312 L 83.503906 347.320312 L 83.503906 366.429688 L 41.332031 366.429688 Z M 41.332031 347.320312 " clip-rule="nonzero"/></clipPath><clipPath id="2bbdcca91f"><path d="M 0.332031 0.320312 L 42.503906 0.320312 L 42.503906 19.429688 L 0.332031 19.429688 Z M 0.332031 0.320312 " clip-rule="nonzero"/></clipPath><clipPath id="a4f7b5bfc5"><rect x="0" width="43" y="0" height="20"/></clipPath><clipPath id="28f9642985"><path d="M 308.089844 240.71875 L 350.261719 240.71875 L 350.261719 259.828125 L 308.089844 259.828125 Z M 308.089844 240.71875 " clip-rule="nonzero"/></clipPath><clipPath id="9adfd05c58"><path d="M 0.0898438 0.71875 L 42.261719 0.71875 L 42.261719 19.828125 L 0.0898438 19.828125 Z M 0.0898438 0.71875 " clip-rule="nonzero"/></clipPath><clipPath id="b38ad8cb22"><rect x="0" width="43" y="0" height="20"/></clipPath><clipPath id="077fef218a"><path d="M 373.511719 240.71875 L 415.683594 240.71875 L 415.683594 259.828125 L 373.511719 259.828125 Z M 373.511719 240.71875 " clip-rule="nonzero"/></clipPath><clipPath id="30b28dc6e8"><path d="M 0.511719 0.71875 L 42.683594 0.71875 L 42.683594 19.828125 L 0.511719 19.828125 Z M 0.511719 0.71875 " clip-rule="nonzero"/></clipPath><clipPath id="b02a265764"><rect x="0" width="43" y="0" height="20"/></clipPath><clipPath id="40bfd2d377"><path d="M 359.273438 63.300781 L 378.382812 63.300781 L 378.382812 105.476562 L 359.273438 105.476562 Z M 359.273438 63.300781 " clip-rule="nonzero"/></clipPath><clipPath id="950bb1de5b"><path d="M 0.273438 0.300781 L 19.382812 0.300781 L 19.382812 42.476562 L 0.273438 42.476562 Z M 0.273438 0.300781 " clip-rule="nonzero"/></clipPath><clipPath id="cd45707c59"><rect x="0" width="20" y="0" height="43"/></clipPath><clipPath id="88793f24f4"><path d="M 144.519531 575.535156 L 163.628906 575.535156 L 163.628906 617.710938 L 144.519531 617.710938 Z M 144.519531 575.535156 " clip-rule="nonzero"/></clipPath><clipPath id="dd5912bbeb"><path d="M 0.519531 0.535156 L 19.628906 0.535156 L 19.628906 42.710938 L 0.519531 42.710938 Z M 0.519531 0.535156 " clip-rule="nonzero"/></clipPath><clipPath id="713f465dcb"><rect x="0" width="20" y="0" height="43"/></clipPath><clipPath id="e66c19561b"><path d="M 41.332031 319.378906 L 83.503906 319.378906 L 83.503906 338.488281 L 41.332031 338.488281 Z M 41.332031 319.378906 " clip-rule="nonzero"/></clipPath><clipPath id="aa2b4077af"><path d="M 0.332031 0.378906 L 42.503906 0.378906 L 42.503906 19.488281 L 0.332031 19.488281 Z M 0.332031 0.378906 " clip-rule="nonzero"/></clipPath><clipPath id="bcfe50241d"><rect x="0" width="43" y="0" height="20"/></clipPath><clipPath id="d4580411ff"><path d="M 308.089844 212.773438 L 350.261719 212.773438 L 350.261719 231.886719 L 308.089844 231.886719 Z M 308.089844 212.773438 " clip-rule="nonzero"/></clipPath><clipPath id="6aafff550c"><path d="M 0.0898438 0.773438 L 42.261719 0.773438 L 42.261719 19.886719 L 0.0898438 19.886719 Z M 0.0898438 0.773438 " clip-rule="nonzero"/></clipPath><clipPath id="0f2f483f4a"><rect x="0" width="43" y="0" height="20"/></clipPath><clipPath id="e6d9e891e8"><path d="M 373.511719 212.773438 L 415.683594 212.773438 L 415.683594 231.886719 L 373.511719 231.886719 Z M 373.511719 212.773438 " clip-rule="nonzero"/></clipPath><clipPath id="f7ad7fcfc7"><path d="M 0.511719 0.773438 L 42.683594 0.773438 L 42.683594 19.886719 L 0.511719 19.886719 Z M 0.511719 0.773438 " clip-rule="nonzero"/></clipPath><clipPath id="10c1af1048"><rect x="0" width="43" y="0" height="20"/></clipPath><clipPath id="771c0a14c7"><path d="M 387.214844 63.300781 L 406.324219 63.300781 L 406.324219 105.476562 L 387.214844 105.476562 Z M 387.214844 63.300781 " clip-rule="nonzero"/></clipPath><clipPath id="39e91da54c"><path d="M 0.214844 0.300781 L 19.324219 0.300781 L 19.324219 42.476562 L 0.214844 42.476562 Z M 0.214844 0.300781 " clip-rule="nonzero"/></clipPath><clipPath id="14b3416b8c"><rect x="0" width="20" y="0" height="43"/></clipPath><clipPath id="f73dcc0a0b"><path d="M 172.460938 575.535156 L 191.570312 575.535156 L 191.570312 617.710938 L 172.460938 617.710938 Z M 172.460938 575.535156 " clip-rule="nonzero"/></clipPath><clipPath id="c955b42b31"><path d="M 0.460938 0.535156 L 19.570312 0.535156 L 19.570312 42.710938 L 0.460938 42.710938 Z M 0.460938 0.535156 " clip-rule="nonzero"/></clipPath><clipPath id="d8e757e95a"><rect x="0" width="20" y="0" height="43"/></clipPath><clipPath id="18112307e2"><path d="M 41.332031 291.433594 L 83.503906 291.433594 L 83.503906 310.546875 L 41.332031 310.546875 Z M 41.332031 291.433594 " clip-rule="nonzero"/></clipPath><clipPath id="61be0b1e24"><path d="M 0.332031 0.433594 L 42.503906 0.433594 L 42.503906 19.546875 L 0.332031 19.546875 Z M 0.332031 0.433594 " clip-rule="nonzero"/></clipPath><clipPath id="148fb14513"><rect x="0" width="43" y="0" height="20"/></clipPath><clipPath id="ef55202369"><path d="M 275 580 L 480 580 L 480 750 L 275 750 Z M 275 580 " clip-rule="nonzero"/></clipPath><clipPath id="61701e9907"><path d="M 541.453125 580.863281 L 607.65625 652.613281 L 341.796875 897.914062 L 275.597656 826.164062 Z M 541.453125 580.863281 " clip-rule="nonzero"/></clipPath><clipPath id="3c3890a70e"><path d="M 0.519531 0.800781 L 205 0.800781 L 205 170 L 0.519531 170 Z M 0.519531 0.800781 " clip-rule="nonzero"/></clipPath><clipPath id="345b7cc20e"><path d="M 266.453125 0.863281 L 332.65625 72.613281 L 66.796875 317.914062 L 0.597656 246.164062 Z M 266.453125 0.863281 " clip-rule="nonzero"/></clipPath><clipPath id="948ff5cc14"><rect x="0" width="205" y="0" height="170"/></clipPath><clipPath id="6ed0168396"><path d="M 200.210938 530.550781 L 212.195312 530.550781 L 212.195312 542.539062 L 200.210938 542.539062 Z M 200.210938 530.550781 " clip-rule="nonzero"/></clipPath><clipPath id="229d59f264"><path d="M 206.203125 530.550781 C 202.894531 530.550781 200.210938 533.234375 200.210938 536.542969 C 200.210938 539.855469 202.894531 542.539062 206.203125 542.539062 C 209.515625 542.539062 212.195312 539.855469 212.195312 536.542969 C 212.195312 533.234375 209.515625 530.550781 206.203125 530.550781 Z M 206.203125 530.550781 " clip-rule="nonzero"/></clipPath><clipPath id="3e55e0023b"><path d="M 0.210938 0.550781 L 12.195312 0.550781 L 12.195312 12.539062 L 0.210938 12.539062 Z M 0.210938 0.550781 " clip-rule="nonzero"/></clipPath><clipPath id="d29778acd7"><path d="M 6.203125 0.550781 C 2.894531 0.550781 0.210938 3.234375 0.210938 6.542969 C 0.210938 9.855469 2.894531 12.539062 6.203125 12.539062 C 9.515625 12.539062 12.195312 9.855469 12.195312 6.542969 C 12.195312 3.234375 9.515625 0.550781 6.203125 0.550781 Z M 6.203125 0.550781 " clip-rule="nonzero"/></clipPath><clipPath id="b114f30333"><rect x="0" width="13" y="0" height="13"/></clipPath><clipPath id="5b2beda315"><path d="M 207.15625 511.46875 L 219.144531 511.46875 L 219.144531 523.457031 L 207.15625 523.457031 Z M 207.15625 511.46875 " clip-rule="nonzero"/></clipPath><clipPath id="69504cb23b"><path d="M 213.148438 511.46875 C 209.839844 511.46875 207.15625 514.152344 207.15625 517.464844 C 207.15625 520.773438 209.839844 523.457031 213.148438 523.457031 C 216.460938 523.457031 219.144531 520.773438 219.144531 517.464844 C 219.144531 514.152344 216.460938 511.46875 213.148438 511.46875 Z M 213.148438 511.46875 " clip-rule="nonzero"/></clipPath><clipPath id="5c14566c56"><path d="M 0.15625 0.46875 L 12.144531 0.46875 L 12.144531 12.457031 L 0.15625 12.457031 Z M 0.15625 0.46875 " clip-rule="nonzero"/></clipPath><clipPath id="30541e1a4b"><path d="M 6.148438 0.46875 C 2.839844 0.46875 0.15625 3.152344 0.15625 6.464844 C 0.15625 9.773438 2.839844 12.457031 6.148438 12.457031 C 9.460938 12.457031 12.144531 9.773438 12.144531 6.464844 C 12.144531 3.152344 9.460938 0.46875 6.148438 0.46875 Z M 6.148438 0.46875 " clip-rule="nonzero"/></clipPath><clipPath id="15ee5d8429"><rect x="0" width="13" y="0" height="13"/></clipPath><clipPath id="79a583599e"><path d="M 222.527344 493.855469 L 234.515625 493.855469 L 234.515625 505.839844 L 222.527344 505.839844 Z M 222.527344 493.855469 " clip-rule="nonzero"/></clipPath><clipPath id="3b3a124957"><path d="M 228.523438 493.855469 C 225.210938 493.855469 222.527344 496.539062 222.527344 499.847656 C 222.527344 503.15625 225.210938 505.839844 228.523438 505.839844 C 231.832031 505.839844 234.515625 503.15625 234.515625 499.847656 C 234.515625 496.539062 231.832031 493.855469 228.523438 493.855469 Z M 228.523438 493.855469 " clip-rule="nonzero"/></clipPath><clipPath id="97e75c485e"><path d="M 0.527344 0.855469 L 12.515625 0.855469 L 12.515625 12.839844 L 0.527344 12.839844 Z M 0.527344 0.855469 " clip-rule="nonzero"/></clipPath><clipPath id="9b968b260f"><path d="M 6.523438 0.855469 C 3.210938 0.855469 0.527344 3.539062 0.527344 6.847656 C 0.527344 10.15625 3.210938 12.839844 6.523438 12.839844 C 9.832031 12.839844 12.515625 10.15625 12.515625 6.847656 C 12.515625 3.539062 9.832031 0.855469 6.523438 0.855469 Z M 6.523438 0.855469 " clip-rule="nonzero"/></clipPath><clipPath id="b12099cb4a"><rect x="0" width="13" y="0" height="13"/></clipPath><clipPath id="3b6b391fae"><path d="M 240.179688 484.183594 L 252.167969 484.183594 L 252.167969 496.171875 L 240.179688 496.171875 Z M 240.179688 484.183594 " clip-rule="nonzero"/></clipPath><clipPath id="5db063e081"><path d="M 246.175781 484.183594 C 242.863281 484.183594 240.179688 486.867188 240.179688 490.175781 C 240.179688 493.488281 242.863281 496.171875 246.175781 496.171875 C 249.484375 496.171875 252.167969 493.488281 252.167969 490.175781 C 252.167969 486.867188 249.484375 484.183594 246.175781 484.183594 Z M 246.175781 484.183594 " clip-rule="nonzero"/></clipPath><clipPath id="dbed6cdbe4"><path d="M 0.179688 0.183594 L 12.167969 0.183594 L 12.167969 12.171875 L 0.179688 12.171875 Z M 0.179688 0.183594 " clip-rule="nonzero"/></clipPath><clipPath id="b7d7449c54"><path d="M 6.175781 0.183594 C 2.863281 0.183594 0.179688 2.867188 0.179688 6.175781 C 0.179688 9.488281 2.863281 12.171875 6.175781 12.171875 C 9.484375 12.171875 12.167969 9.488281 12.167969 6.175781 C 12.167969 2.867188 9.484375 0.183594 6.175781 0.183594 Z M 6.175781 0.183594 " clip-rule="nonzero"/></clipPath><clipPath id="f79009b44d"><rect x="0" width="13" y="0" height="13"/></clipPath><clipPath id="8692b4d39c"><path d="M 261.292969 480.292969 L 273.277344 480.292969 L 273.277344 492.277344 L 261.292969 492.277344 Z M 261.292969 480.292969 " clip-rule="nonzero"/></clipPath><clipPath id="e76e629de7"><path d="M 267.285156 480.292969 C 263.972656 480.292969 261.292969 482.976562 261.292969 486.285156 C 261.292969 489.59375 263.972656 492.277344 267.285156 492.277344 C 270.59375 492.277344 273.277344 489.59375 273.277344 486.285156 C 273.277344 482.976562 270.59375 480.292969 267.285156 480.292969 Z M 267.285156 480.292969 " clip-rule="nonzero"/></clipPath><clipPath id="833adb2017"><path d="M 0.292969 0.292969 L 12.277344 0.292969 L 12.277344 12.277344 L 0.292969 12.277344 Z M 0.292969 0.292969 " clip-rule="nonzero"/></clipPath><clipPath id="14e4a73873"><path d="M 6.285156 0.292969 C 2.972656 0.292969 0.292969 2.976562 0.292969 6.285156 C 0.292969 9.59375 2.972656 12.277344 6.285156 12.277344 C 9.59375 12.277344 12.277344 9.59375 12.277344 6.285156 C 12.277344 2.976562 9.59375 0.292969 6.285156 0.292969 Z M 6.285156 0.292969 " clip-rule="nonzero"/></clipPath><clipPath id="add4ffde6c"><rect x="0" width="13" y="0" height="13"/></clipPath><clipPath id="6ec1d1bf52"><path d="M 154.082031 224.699219 L 210.589844 224.699219 L 210.589844 229.171875 L 154.082031 229.171875 Z M 154.082031 224.699219 " clip-rule="nonzero"/></clipPath><clipPath id="8aae9a1f05"><path d="M 156.320312 224.699219 L 208.351562 224.699219 C 209.585938 224.699219 210.589844 225.699219 210.589844 226.933594 C 210.589844 228.171875 209.585938 229.171875 208.351562 229.171875 L 156.320312 229.171875 C 155.085938 229.171875 154.082031 228.171875 154.082031 226.933594 C 154.082031 225.699219 155.085938 224.699219 156.320312 224.699219 Z M 156.320312 224.699219 " clip-rule="nonzero"/></clipPath><clipPath id="116873aab8"><path d="M 0.0820312 0.699219 L 56.589844 0.699219 L 56.589844 5.171875 L 0.0820312 5.171875 Z M 0.0820312 0.699219 " clip-rule="nonzero"/></clipPath><clipPath id="2d4e0fba4c"><path d="M 2.320312 0.699219 L 54.351562 0.699219 C 55.585938 0.699219 56.589844 1.699219 56.589844 2.933594 C 56.589844 4.171875 55.585938 5.171875 54.351562 5.171875 L 2.320312 5.171875 C 1.085938 5.171875 0.0820312 4.171875 0.0820312 2.933594 C 0.0820312 1.699219 1.085938 0.699219 2.320312 0.699219 Z M 2.320312 0.699219 " clip-rule="nonzero"/></clipPath><clipPath id="246305c9b9"><rect x="0" width="57" y="0" height="6"/></clipPath><clipPath id="0443d33d1d"><path d="M 149.117188 195.484375 L 284.828125 195.484375 L 284.828125 224.6875 L 149.117188 224.6875 Z M 149.117188 195.484375 " clip-rule="nonzero"/></clipPath><clipPath id="242c49fc5d"><path d="M 0.117188 0.484375 L 135.828125 0.484375 L 135.828125 29.6875 L 0.117188 29.6875 Z M 0.117188 0.484375 " clip-rule="nonzero"/></clipPath><clipPath id="cda7bcf668"><rect x="0" width="136" y="0" height="30"/></clipPath><clipPath id="ec44bd9f9f"><path d="M 178.613281 195.96875 L 183.089844 195.96875 L 183.089844 212.019531 L 178.613281 212.019531 Z M 178.613281 195.96875 " clip-rule="nonzero"/></clipPath><clipPath id="ac2ab0cc8c"><path d="M 178.613281 209.78125 L 178.613281 198.210938 C 178.613281 196.976562 179.617188 195.972656 180.851562 195.972656 C 182.089844 195.972656 183.089844 196.976562 183.089844 198.210938 L 183.089844 209.78125 C 183.089844 211.015625 182.089844 212.019531 180.851562 212.019531 C 179.617188 212.019531 178.613281 211.015625 178.613281 209.78125 Z M 178.613281 209.78125 " clip-rule="nonzero"/></clipPath><clipPath id="d806915cfb"><path d="M 0.613281 0.96875 L 5.089844 0.96875 L 5.089844 17.019531 L 0.613281 17.019531 Z M 0.613281 0.96875 " clip-rule="nonzero"/></clipPath><clipPath id="82ed1dea4f"><path d="M 0.613281 14.78125 L 0.613281 3.210938 C 0.613281 1.976562 1.617188 0.972656 2.851562 0.972656 C 4.089844 0.972656 5.089844 1.976562 5.089844 3.210938 L 5.089844 14.78125 C 5.089844 16.015625 4.089844 17.019531 2.851562 17.019531 C 1.617188 17.019531 0.613281 16.015625 0.613281 14.78125 Z M 0.613281 14.78125 " clip-rule="nonzero"/></clipPath><clipPath id="4c7cbba840"><rect x="0" width="6" y="0" height="18"/></clipPath><clipPath id="d5b0a3e4da"><path d="M 183.078125 195.488281 L 285.003906 195.488281 L 285.003906 202.117188 L 183.078125 202.117188 Z M 183.078125 195.488281 " clip-rule="nonzero"/></clipPath><clipPath id="66967412c9"><path d="M 0.078125 0.488281 L 102.003906 0.488281 L 102.003906 7.117188 L 0.078125 7.117188 Z M 0.078125 0.488281 " clip-rule="nonzero"/></clipPath><clipPath id="90a4ab3ac7"><rect x="0" width="103" y="0" height="8"/></clipPath><clipPath id="bddf5db702"><path d="M 183.078125 202.117188 L 285.003906 202.117188 L 285.003906 208.335938 L 183.078125 208.335938 Z M 183.078125 202.117188 " clip-rule="nonzero"/></clipPath><clipPath id="4d0226ac36"><path d="M 0.078125 0.117188 L 102.003906 0.117188 L 102.003906 6.335938 L 0.078125 6.335938 Z M 0.078125 0.117188 " clip-rule="nonzero"/></clipPath><clipPath id="5f99afed82"><rect x="0" width="103" y="0" height="7"/></clipPath><clipPath id="982daaaa9e"><path d="M 210.089844 213.882812 L 285.011719 213.882812 L 285.011719 219.140625 L 210.089844 219.140625 Z M 210.089844 213.882812 " clip-rule="nonzero"/></clipPath><clipPath id="385ed3c87c"><path d="M 0.0898438 0.882812 L 75.011719 0.882812 L 75.011719 6.140625 L 0.0898438 6.140625 Z M 0.0898438 0.882812 " clip-rule="nonzero"/></clipPath><clipPath id="34c708ad16"><rect x="0" width="76" y="0" height="7"/></clipPath><clipPath id="6ceea95715"><path d="M 210.089844 219.691406 L 285.011719 219.691406 L 285.011719 224.953125 L 210.089844 224.953125 Z M 210.089844 219.691406 " clip-rule="nonzero"/></clipPath><clipPath id="487b13107a"><path d="M 0.0898438 0.691406 L 75.011719 0.691406 L 75.011719 5.953125 L 0.0898438 5.953125 Z M 0.0898438 0.691406 " clip-rule="nonzero"/></clipPath><clipPath id="40cd4619a7"><rect x="0" width="76" y="0" height="6"/></clipPath></defs><rect x="-48" width="576" fill="#ffffff" y="-74.999999" height="899.999994" fill-opacity="1"/><rect x="-48" width="576" fill="#ffffff" y="-74.999999" height="899.999994" fill-opacity="1"/><g transform="matrix(1, 0, 0, 1, 0, -0.000000000000042435)"><g clip-path="url(#28d59c6e94)"><g clip-path="url(#1f766ed6e1)"><rect x="-105.6" width="691.2" fill="#b4b4b4" height="1079.999992" y="-164.999999" fill-opacity="1"/></g></g></g><g clip-path="url(#08f84c83ea)"><g transform="matrix(1, 0, 0, 1, 13, 262)"><g clip-path="url(#6d9bbd9761)"><g clip-path="url(#99e83703a8)"><path fill="#087958" d="M 0.605469 0.304688 L 98.230469 0.304688 L 98.230469 457.921875 L 0.605469 457.921875 Z M 0.605469 0.304688 " fill-opacity="1" fill-rule="nonzero"/></g></g></g></g><g clip-path="url(#1425802ec0)"><g transform="matrix(1, 0, 0, 1, 144, 187)"><g clip-path="url(#c59d88b884)"><g clip-path="url(#7f1b28437b)"><path fill="#0062ff" d="M 0.527344 372.074219 L 0.527344 0.167969 L 149.753906 0.167969 L 149.753906 372.074219 Z M 0.527344 372.074219 " fill-opacity="1" fill-rule="nonzero"/></g></g></g></g><g clip-path="url(#310db4f9d3)"><path stroke-linecap="butt" transform="matrix(0, -0.75, 0.75, 0, 144.527044, 559.074257)" fill="none" stroke-linejoin="miter" d="M 0.0000506726 0.00039933 L 495.750075 0.00039933 L 495.750075 198.969159 L 0.0000506726 198.969159 Z M 0.0000506726 0.00039933 " stroke="#ffffff" stroke-width="22" stroke-opacity="1" stroke-miterlimit="4"/></g><g clip-path="url(#010e6cff6f)"><g clip-path="url(#b2115f319e)"><g transform="matrix(1, 0, 0, 1, 217, 497)"><g clip-path="url(#0e453e0e04)"><g clip-path="url(#1636d8f19d)"><g clip-path="url(#ea24176527)"><path fill="#d1cccc" d="M 0.960938 0.976562 L 99.609375 0.976562 L 99.609375 99.621094 L 0.960938 99.621094 Z M 0.960938 0.976562 " fill-opacity="1" fill-rule="nonzero"/></g></g></g></g></g></g><g clip-path="url(#d91c120d37)"><g clip-path="url(#8ae47d3deb)"><path stroke-linecap="butt" transform="matrix(0.75, 0, 0, 0.75, 217.961182, 497.974988)" fill="none" stroke-linejoin="miter" d="M 65.760094 0.00209969 C 29.442383 0.00209969 -0.000326365 29.439601 -0.000326365 65.757311 C -0.000326365 102.075021 29.442383 131.517731 65.760094 131.517731 C 102.072595 131.517731 131.515305 102.075021 131.515305 65.757311 C 131.515305 29.439601 102.072595 0.00209969 65.760094 0.00209969 Z M 65.760094 0.00209969 " stroke="#ffffff" stroke-width="12" stroke-opacity="1" stroke-miterlimit="4"/></g></g><g clip-path="url(#a758961485)"><g transform="matrix(1, 0, 0, 1, 219, 559)"><g clip-path="url(#6bd8cbcb4c)"><g clip-path="url(#f557f0203c)"><path fill="#ffffff" d="M 0.144531 0.078125 L 94.265625 0.078125 L 94.265625 43.652344 L 0.144531 43.652344 Z M 0.144531 0.078125 " fill-opacity="1" fill-rule="nonzero"/></g></g></g></g><g clip-path="url(#c6e14c996f)"><g transform="matrix(1, 0, 0, 1, 280, 502)"><g clip-path="url(#1860b8cfb1)"><g clip-path="url(#f7da974292)"><path fill="#ffffff" d="M 0.480469 0.5625 L 49.695312 0.5625 L 49.695312 100.722656 L 0.480469 100.722656 Z M 0.480469 0.5625 " fill-opacity="1" fill-rule="nonzero"/></g></g></g></g><g clip-path="url(#ab0b353325)"><g clip-path="url(#446238e2c1)"><g transform="matrix(1, 0, 0, 1, 85, 139)"><g clip-path="url(#44c47966a2)"><g clip-path="url(#4fb46f5fc4)"><g clip-path="url(#e52edccfad)"><path fill="#4681df" d="M 0.894531 0.0742188 L 98.984375 0.0742188 L 98.984375 98.164062 L 0.894531 98.164062 Z M 0.894531 0.0742188 " fill-opacity="1" fill-rule="nonzero"/></g></g></g></g></g></g><g clip-path="url(#196239c1e7)"><g clip-path="url(#3e13b79881)"><path stroke-linecap="butt" transform="matrix(0.75, 0, 0, 0.75, 85.89481, 139.073713)" fill="none" stroke-linejoin="miter" d="M 65.390257 0.000674037 C 29.275672 0.000674037 -0.000371013 29.276717 -0.000371013 65.391302 C -0.000371013 101.505887 29.275672 130.78193 65.390257 130.78193 C 101.504842 130.78193 130.780885 101.505887 130.780885 65.391302 C 130.780885 29.276717 101.504842 0.000674037 65.390257 0.000674037 Z M 65.390257 0.000674037 " stroke="#ffffff" stroke-width="22" stroke-opacity="1" stroke-miterlimit="4"/></g></g><g clip-path="url(#5a085da851)"><g transform="matrix(1, 0, 0, 1, 152, 195)"><g clip-path="url(#f0326434d4)"><g clip-path="url(#d63f34ae40)"><path fill="#0062ff" d="M 133 42.15625 L 0.828125 42.15625 L 0.828125 0.484375 L 133 0.484375 Z M 133 42.15625 " fill-opacity="1" fill-rule="nonzero"/></g></g></g></g><g clip-path="url(#6ebb1e8538)"><g clip-path="url(#f2f18e699f)"><g transform="matrix(1, 0, 0, 1, 0, -0.000000000000042435)"><g clip-path="url(#c0f0788b23)"><g clip-path="url(#e1283c8522)"><g clip-path="url(#7c3d4b75ff)"><path fill="#ffffff" d="M 503.367188 -98.070312 L 512.335938 -0.859375 L -224.347656 67.101562 L -233.3125 -30.109375 Z M 503.367188 -98.070312 " fill-opacity="1" fill-rule="nonzero"/></g></g></g></g></g></g><g clip-path="url(#1502b2f289)"><g transform="matrix(1, 0, 0, 1, 447, 132)"><g clip-path="url(#21f2b36094)"><g clip-path="url(#41234cd473)"><path fill="#087958" d="M 0.554688 0.632812 L 20.332031 0.632812 L 20.332031 502.535156 L 0.554688 502.535156 Z M 0.554688 0.632812 " fill-opacity="1" fill-rule="nonzero"/></g></g></g></g><g clip-path="url(#cd90534e84)"><g transform="matrix(1, 0, 0, 1, 222, 39)"><g clip-path="url(#afdf624082)"><g clip-path="url(#e75903169b)"><path fill="#087958" d="M 0.527344 0.890625 L 245.214844 0.890625 L 245.214844 94.382812 L 0.527344 94.382812 Z M 0.527344 0.890625 " fill-opacity="1" fill-rule="nonzero"/></g></g></g></g><g clip-path="url(#27071d8af8)"><g transform="matrix(1, 0, 0, 1, 445, 15)"><g clip-path="url(#f784d10833)"><g clip-path="url(#7f6d7ca4a6)"><path fill="#087958" d="M 0.886719 0.609375 L 22.332031 0.609375 L 22.332031 93.347656 L 0.886719 93.347656 Z M 0.886719 0.609375 " fill-opacity="1" fill-rule="nonzero"/></g></g></g></g><g clip-path="url(#3e57bd591b)"><g clip-path="url(#03a27be6c0)"><g transform="matrix(1, 0, 0, 1, 222, 15)"><g clip-path="url(#3e97919926)"><g clip-path="url(#f7b4df10b3)"><g clip-path="url(#4fd29e16ce)"><path fill="#087958" d="M 0.53125 20.195312 L 224.980469 0.605469 L 229.46875 52.046875 L 5.019531 71.636719 Z M 0.53125 20.195312 " fill-opacity="1" fill-rule="nonzero"/></g></g></g></g></g></g><g clip-path="url(#28079c199a)"><g transform="matrix(1, 0, 0, 1, 222, 35)"><g clip-path="url(#5e3324bd49)"><g clip-path="url(#dac7d11697)"><path fill="#087958" d="M 0.527344 77.425781 L 0.527344 0.78125 L 20.734375 0.78125 L 20.734375 77.425781 Z M 0.527344 77.425781 " fill-opacity="1" fill-rule="nonzero"/></g></g></g></g><g clip-path="url(#23de451fa5)"><g clip-path="url(#180e0c6bdd)"><g transform="matrix(1, 0, 0, 1, 5, 43)"><g clip-path="url(#907b3c789e)"><g clip-path="url(#c02bf58226)"><g clip-path="url(#c8575b4a89)"><path fill="#ffffff" d="M 0.578125 7.484375 L 92.292969 0.0507812 L 97.3125 62 L 5.597656 69.433594 Z M 0.578125 7.484375 " fill-opacity="1" fill-rule="nonzero"/></g></g></g></g></g></g><g clip-path="url(#d5aa7fdd9e)"><g transform="matrix(1, 0, 0, 1, 308, 408)"><g clip-path="url(#adab583997)"><g clip-path="url(#0b00c9ae7c)"><path fill="#ffffff" d="M 0.0898438 0.367188 L 42.265625 0.367188 L 42.265625 19.480469 L 0.0898438 19.480469 Z M 0.0898438 0.367188 " fill-opacity="1" fill-rule="nonzero"/></g></g></g></g><g clip-path="url(#215daeccf3)"><g transform="matrix(1, 0, 0, 1, 373, 408)"><g clip-path="url(#83622ae194)"><g clip-path="url(#f4a19e8e9d)"><path fill="#ffffff" d="M 0.511719 0.367188 L 42.6875 0.367188 L 42.6875 19.480469 L 0.511719 19.480469 Z M 0.511719 0.367188 " fill-opacity="1" fill-rule="nonzero"/></g></g></g></g><g clip-path="url(#096f5a7323)"><g transform="matrix(1, 0, 0, 1, 41, 487)"><g clip-path="url(#74d129e510)"><g clip-path="url(#b5f63d0e6d)"><path fill="#ffffff" d="M 0.332031 0.0273438 L 42.507812 0.0273438 L 42.507812 19.140625 L 0.332031 19.140625 Z M 0.332031 0.0273438 " fill-opacity="1" fill-rule="nonzero"/></g></g></g></g><g clip-path="url(#69847e3963)"><g transform="matrix(1, 0, 0, 1, 308, 436)"><g clip-path="url(#036f9af145)"><g clip-path="url(#c01bc98c5c)"><path fill="#ffffff" d="M 0.0898438 0.3125 L 42.265625 0.3125 L 42.265625 19.421875 L 0.0898438 19.421875 Z M 0.0898438 0.3125 " fill-opacity="1" fill-rule="nonzero"/></g></g></g></g><g clip-path="url(#f760f039cf)"><g transform="matrix(1, 0, 0, 1, 373, 436)"><g clip-path="url(#2f7c15643f)"><g clip-path="url(#c8d9c9deca)"><path fill="#ffffff" d="M 0.511719 0.3125 L 42.6875 0.3125 L 42.6875 19.421875 L 0.511719 19.421875 Z M 0.511719 0.3125 " fill-opacity="1" fill-rule="nonzero"/></g></g></g></g><g clip-path="url(#746c7892bc)"><g transform="matrix(1, 0, 0, 1, 41, 514)"><g clip-path="url(#50f8574523)"><g clip-path="url(#72236a0511)"><path fill="#ffffff" d="M 0.332031 0.972656 L 42.507812 0.972656 L 42.507812 20.082031 L 0.332031 20.082031 Z M 0.332031 0.972656 " fill-opacity="1" fill-rule="nonzero"/></g></g></g></g><g clip-path="url(#fcfe4ec8c1)"><g transform="matrix(1, 0, 0, 1, 41, 571)"><g clip-path="url(#e982da6a4f)"><g clip-path="url(#9be3059327)"><path fill="#ffffff" d="M 0.332031 0.0234375 L 42.507812 0.0234375 L 42.507812 19.132812 L 0.332031 19.132812 Z M 0.332031 0.0234375 " fill-opacity="1" fill-rule="nonzero"/></g></g></g></g><g clip-path="url(#4eeb412f6f)"><g transform="matrix(1, 0, 0, 1, 308, 464)"><g clip-path="url(#cb4a2267d0)"><g clip-path="url(#013c035749)"><path fill="#ffffff" d="M 0.0898438 0.253906 L 42.265625 0.253906 L 42.265625 19.363281 L 0.0898438 19.363281 Z M 0.0898438 0.253906 " fill-opacity="1" fill-rule="nonzero"/></g></g></g></g><g clip-path="url(#64a97eb162)"><g transform="matrix(1, 0, 0, 1, 373, 464)"><g clip-path="url(#a6bf750cf7)"><g clip-path="url(#d835c9dbd2)"><path fill="#ffffff" d="M 0.511719 0.253906 L 42.6875 0.253906 L 42.6875 19.363281 L 0.511719 19.363281 Z M 0.511719 0.253906 " fill-opacity="1" fill-rule="nonzero"/></g></g></g></g><g clip-path="url(#1897b48294)"><g transform="matrix(1, 0, 0, 1, 41, 542)"><g clip-path="url(#ad801d7557)"><g clip-path="url(#f80b5016ef)"><path fill="#ffffff" d="M 0.332031 0.914062 L 42.507812 0.914062 L 42.507812 20.023438 L 0.332031 20.023438 Z M 0.332031 0.914062 " fill-opacity="1" fill-rule="nonzero"/></g></g></g></g><g clip-path="url(#7fe962e0e6)"><g transform="matrix(1, 0, 0, 1, 41, 598)"><g clip-path="url(#bd9445ba64)"><g clip-path="url(#ffc05a7bd3)"><path fill="#ffffff" d="M 0.332031 0.964844 L 42.507812 0.964844 L 42.507812 20.074219 L 0.332031 20.074219 Z M 0.332031 0.964844 " fill-opacity="1" fill-rule="nonzero"/></g></g></g></g><g clip-path="url(#7319c8da9a)"><g transform="matrix(1, 0, 0, 1, 308, 380)"><g clip-path="url(#2a40a92aad)"><g clip-path="url(#9e0a09f784)"><path fill="#ffffff" d="M 0.0898438 0.425781 L 42.265625 0.425781 L 42.265625 19.539062 L 0.0898438 19.539062 Z M 0.0898438 0.425781 " fill-opacity="1" fill-rule="nonzero"/></g></g></g></g><g clip-path="url(#6e8b9b78e6)"><g transform="matrix(1, 0, 0, 1, 373, 380)"><g clip-path="url(#5ff1e54d4c)"><g clip-path="url(#a5acca3e9c)"><path fill="#ffffff" d="M 0.511719 0.425781 L 42.6875 0.425781 L 42.6875 19.539062 L 0.511719 19.539062 Z M 0.511719 0.425781 " fill-opacity="1" fill-rule="nonzero"/></g></g></g></g><g clip-path="url(#bb5259a4b2)"><g transform="matrix(1, 0, 0, 1, 41, 459)"><g clip-path="url(#7220624617)"><g clip-path="url(#57796929a9)"><path fill="#ffffff" d="M 0.332031 0.0859375 L 42.507812 0.0859375 L 42.507812 19.195312 L 0.332031 19.195312 Z M 0.332031 0.0859375 " fill-opacity="1" fill-rule="nonzero"/></g></g></g></g><g clip-path="url(#405c8b0d36)"><g transform="matrix(1, 0, 0, 1, 308, 352)"><g clip-path="url(#86b250ad2c)"><g clip-path="url(#b4ac9d94a3)"><path fill="#ffffff" d="M 0.0898438 0.484375 L 42.265625 0.484375 L 42.265625 19.59375 L 0.0898438 19.59375 Z M 0.0898438 0.484375 " fill-opacity="1" fill-rule="nonzero"/></g></g></g></g><g clip-path="url(#6c7e46c5a2)"><g transform="matrix(1, 0, 0, 1, 373, 352)"><g clip-path="url(#6b621118b7)"><g clip-path="url(#237b60bb7f)"><path fill="#ffffff" d="M 0.511719 0.484375 L 42.6875 0.484375 L 42.6875 19.59375 L 0.511719 19.59375 Z M 0.511719 0.484375 " fill-opacity="1" fill-rule="nonzero"/></g></g></g></g><g clip-path="url(#0df009b191)"><g transform="matrix(1, 0, 0, 1, 247, 63)"><g clip-path="url(#f9a50f810c)"><g clip-path="url(#db27dca9ce)"><path fill="#ffffff" d="M 19.617188 0.300781 L 19.617188 42.480469 L 0.503906 42.480469 L 0.503906 0.300781 Z M 19.617188 0.300781 " fill-opacity="1" fill-rule="nonzero"/></g></g></g></g><g clip-path="url(#1bfc0aada9)"><g transform="matrix(1, 0, 0, 1, 41, 431)"><g clip-path="url(#ba74b70744)"><g clip-path="url(#907dbc7b6d)"><path fill="#ffffff" d="M 0.332031 0.144531 L 42.507812 0.144531 L 42.507812 19.253906 L 0.332031 19.253906 Z M 0.332031 0.144531 " fill-opacity="1" fill-rule="nonzero"/></g></g></g></g><g clip-path="url(#a039fca017)"><g transform="matrix(1, 0, 0, 1, 308, 324)"><g clip-path="url(#f3427bda8d)"><g clip-path="url(#2c77dc917d)"><path fill="#ffffff" d="M 0.0898438 0.542969 L 42.265625 0.542969 L 42.265625 19.652344 L 0.0898438 19.652344 Z M 0.0898438 0.542969 " fill-opacity="1" fill-rule="nonzero"/></g></g></g></g><g clip-path="url(#bfeffd095f)"><g transform="matrix(1, 0, 0, 1, 373, 324)"><g clip-path="url(#c100ddc4f2)"><g clip-path="url(#b1ad3fb6f1)"><path fill="#ffffff" d="M 0.511719 0.542969 L 42.6875 0.542969 L 42.6875 19.652344 L 0.511719 19.652344 Z M 0.511719 0.542969 " fill-opacity="1" fill-rule="nonzero"/></g></g></g></g><g clip-path="url(#75bbbf048e)"><g transform="matrix(1, 0, 0, 1, 275, 63)"><g clip-path="url(#522aa400e8)"><g clip-path="url(#6035c76ec4)"><path fill="#ffffff" d="M 19.558594 0.300781 L 19.558594 42.480469 L 0.449219 42.480469 L 0.449219 0.300781 Z M 19.558594 0.300781 " fill-opacity="1" fill-rule="nonzero"/></g></g></g></g><g clip-path="url(#3f58a826fb)"><g transform="matrix(1, 0, 0, 1, 41, 403)"><g clip-path="url(#ec30d6e39e)"><g clip-path="url(#2ede525e6b)"><path fill="#ffffff" d="M 0.332031 0.203125 L 42.507812 0.203125 L 42.507812 19.3125 L 0.332031 19.3125 Z M 0.332031 0.203125 " fill-opacity="1" fill-rule="nonzero"/></g></g></g></g><g clip-path="url(#1708311c75)"><g transform="matrix(1, 0, 0, 1, 308, 296)"><g clip-path="url(#65dd48be9e)"><g clip-path="url(#9daad3a9e3)"><path fill="#ffffff" d="M 0.0898438 0.601562 L 42.265625 0.601562 L 42.265625 19.710938 L 0.0898438 19.710938 Z M 0.0898438 0.601562 " fill-opacity="1" fill-rule="nonzero"/></g></g></g></g><g clip-path="url(#252e555631)"><g transform="matrix(1, 0, 0, 1, 373, 296)"><g clip-path="url(#3469998d26)"><g clip-path="url(#6fa31448a3)"><path fill="#ffffff" d="M 0.511719 0.601562 L 42.6875 0.601562 L 42.6875 19.710938 L 0.511719 19.710938 Z M 0.511719 0.601562 " fill-opacity="1" fill-rule="nonzero"/></g></g></g></g><g clip-path="url(#eb684a1527)"><g transform="matrix(1, 0, 0, 1, 303, 63)"><g clip-path="url(#d37f166852)"><g clip-path="url(#c7f98e661a)"><path fill="#ffffff" d="M 19.5 0.300781 L 19.5 42.480469 L 0.390625 42.480469 L 0.390625 0.300781 Z M 19.5 0.300781 " fill-opacity="1" fill-rule="nonzero"/></g></g></g></g><g clip-path="url(#df7a6bc0b5)"><g transform="matrix(1, 0, 0, 1, 41, 375)"><g clip-path="url(#1506968e56)"><g clip-path="url(#79ce167b68)"><path fill="#ffffff" d="M 0.332031 0.261719 L 42.507812 0.261719 L 42.507812 19.371094 L 0.332031 19.371094 Z M 0.332031 0.261719 " fill-opacity="1" fill-rule="nonzero"/></g></g></g></g><g clip-path="url(#4bd2be3095)"><g transform="matrix(1, 0, 0, 1, 308, 268)"><g clip-path="url(#b3bc08b5af)"><g clip-path="url(#2fd153c2ed)"><path fill="#ffffff" d="M 0.0898438 0.660156 L 42.265625 0.660156 L 42.265625 19.769531 L 0.0898438 19.769531 Z M 0.0898438 0.660156 " fill-opacity="1" fill-rule="nonzero"/></g></g></g></g><g clip-path="url(#a19aba41b3)"><g transform="matrix(1, 0, 0, 1, 373, 268)"><g clip-path="url(#f05557fa5b)"><g clip-path="url(#71436ed4fc)"><path fill="#ffffff" d="M 0.511719 0.660156 L 42.6875 0.660156 L 42.6875 19.769531 L 0.511719 19.769531 Z M 0.511719 0.660156 " fill-opacity="1" fill-rule="nonzero"/></g></g></g></g><g clip-path="url(#497a2f9877)"><g transform="matrix(1, 0, 0, 1, 331, 63)"><g clip-path="url(#9ffbd45b60)"><g clip-path="url(#8c84587d9e)"><path fill="#ffffff" d="M 19.441406 0.300781 L 19.441406 42.480469 L 0.332031 42.480469 L 0.332031 0.300781 Z M 19.441406 0.300781 " fill-opacity="1" fill-rule="nonzero"/></g></g></g></g><g clip-path="url(#16bfbac5f1)"><g transform="matrix(1, 0, 0, 1, 41, 347)"><g clip-path="url(#a4f7b5bfc5)"><g clip-path="url(#2bbdcca91f)"><path fill="#ffffff" d="M 0.332031 0.320312 L 42.507812 0.320312 L 42.507812 19.429688 L 0.332031 19.429688 Z M 0.332031 0.320312 " fill-opacity="1" fill-rule="nonzero"/></g></g></g></g><g clip-path="url(#28f9642985)"><g transform="matrix(1, 0, 0, 1, 308, 240)"><g clip-path="url(#b38ad8cb22)"><g clip-path="url(#9adfd05c58)"><path fill="#ffffff" d="M 0.0898438 0.71875 L 42.265625 0.71875 L 42.265625 19.828125 L 0.0898438 19.828125 Z M 0.0898438 0.71875 " fill-opacity="1" fill-rule="nonzero"/></g></g></g></g><g clip-path="url(#077fef218a)"><g transform="matrix(1, 0, 0, 1, 373, 240)"><g clip-path="url(#b02a265764)"><g clip-path="url(#30b28dc6e8)"><path fill="#ffffff" d="M 0.511719 0.71875 L 42.6875 0.71875 L 42.6875 19.828125 L 0.511719 19.828125 Z M 0.511719 0.71875 " fill-opacity="1" fill-rule="nonzero"/></g></g></g></g><g clip-path="url(#40bfd2d377)"><g transform="matrix(1, 0, 0, 1, 359, 63)"><g clip-path="url(#cd45707c59)"><g clip-path="url(#950bb1de5b)"><path fill="#ffffff" d="M 19.382812 0.300781 L 19.382812 42.480469 L 0.273438 42.480469 L 0.273438 0.300781 Z M 19.382812 0.300781 " fill-opacity="1" fill-rule="nonzero"/></g></g></g></g><g clip-path="url(#88793f24f4)"><g transform="matrix(1, 0, 0, 1, 144, 575)"><g clip-path="url(#713f465dcb)"><g clip-path="url(#dd5912bbeb)"><path fill="#ffffff" d="M 19.628906 0.535156 L 19.628906 42.710938 L 0.519531 42.710938 L 0.519531 0.535156 Z M 19.628906 0.535156 " fill-opacity="1" fill-rule="nonzero"/></g></g></g></g><g clip-path="url(#e66c19561b)"><g transform="matrix(1, 0, 0, 1, 41, 319)"><g clip-path="url(#bcfe50241d)"><g clip-path="url(#aa2b4077af)"><path fill="#ffffff" d="M 0.332031 0.378906 L 42.507812 0.378906 L 42.507812 19.488281 L 0.332031 19.488281 Z M 0.332031 0.378906 " fill-opacity="1" fill-rule="nonzero"/></g></g></g></g><g clip-path="url(#d4580411ff)"><g transform="matrix(1, 0, 0, 1, 308, 212)"><g clip-path="url(#0f2f483f4a)"><g clip-path="url(#6aafff550c)"><path fill="#ffffff" d="M 0.0898438 0.773438 L 42.265625 0.773438 L 42.265625 19.886719 L 0.0898438 19.886719 Z M 0.0898438 0.773438 " fill-opacity="1" fill-rule="nonzero"/></g></g></g></g><g clip-path="url(#e6d9e891e8)"><g transform="matrix(1, 0, 0, 1, 373, 212)"><g clip-path="url(#10c1af1048)"><g clip-path="url(#f7ad7fcfc7)"><path fill="#ffffff" d="M 0.511719 0.773438 L 42.6875 0.773438 L 42.6875 19.886719 L 0.511719 19.886719 Z M 0.511719 0.773438 " fill-opacity="1" fill-rule="nonzero"/></g></g></g></g><g clip-path="url(#771c0a14c7)"><g transform="matrix(1, 0, 0, 1, 387, 63)"><g clip-path="url(#14b3416b8c)"><g clip-path="url(#39e91da54c)"><path fill="#ffffff" d="M 19.324219 0.300781 L 19.324219 42.480469 L 0.214844 42.480469 L 0.214844 0.300781 Z M 19.324219 0.300781 " fill-opacity="1" fill-rule="nonzero"/></g></g></g></g><g clip-path="url(#f73dcc0a0b)"><g transform="matrix(1, 0, 0, 1, 172, 575)"><g clip-path="url(#d8e757e95a)"><g clip-path="url(#c955b42b31)"><path fill="#ffffff" d="M 19.570312 0.535156 L 19.570312 42.710938 L 0.460938 42.710938 L 0.460938 0.535156 Z M 19.570312 0.535156 " fill-opacity="1" fill-rule="nonzero"/></g></g></g></g><g clip-path="url(#18112307e2)"><g transform="matrix(1, 0, 0, 1, 41, 291)"><g clip-path="url(#148fb14513)"><g clip-path="url(#61be0b1e24)"><path fill="#ffffff" d="M 0.332031 0.433594 L 42.507812 0.433594 L 42.507812 19.546875 L 0.332031 19.546875 Z M 0.332031 0.433594 " fill-opacity="1" fill-rule="nonzero"/></g></g></g></g><g clip-path="url(#ef55202369)"><g clip-path="url(#61701e9907)"><g transform="matrix(1, 0, 0, 1, 275, 580)"><g clip-path="url(#948ff5cc14)"><g clip-path="url(#3c3890a70e)"><g clip-path="url(#345b7cc20e)"><path fill="#ffffff" d="M 266.453125 0.863281 L 332.65625 72.613281 L 66.675781 318.023438 L 0.476562 246.273438 Z M 266.453125 0.863281 " fill-opacity="1" fill-rule="nonzero"/></g></g></g></g></g></g><g clip-path="url(#6ed0168396)"><g clip-path="url(#229d59f264)"><g transform="matrix(1, 0, 0, 1, 200, 530)"><g clip-path="url(#b114f30333)"><g clip-path="url(#3e55e0023b)"><g clip-path="url(#d29778acd7)"><path fill="#5d92e8" d="M 0.210938 0.550781 L 12.195312 0.550781 L 12.195312 12.539062 L 0.210938 12.539062 Z M 0.210938 0.550781 " fill-opacity="1" fill-rule="nonzero"/></g></g></g></g></g></g><g clip-path="url(#5b2beda315)"><g clip-path="url(#69504cb23b)"><g transform="matrix(1, 0, 0, 1, 207, 511)"><g clip-path="url(#15ee5d8429)"><g clip-path="url(#5c14566c56)"><g clip-path="url(#30541e1a4b)"><path fill="#5d92e8" d="M 0.15625 0.46875 L 12.144531 0.46875 L 12.144531 12.457031 L 0.15625 12.457031 Z M 0.15625 0.46875 " fill-opacity="1" fill-rule="nonzero"/></g></g></g></g></g></g><g clip-path="url(#79a583599e)"><g clip-path="url(#3b3a124957)"><g transform="matrix(1, 0, 0, 1, 222, 493)"><g clip-path="url(#b12099cb4a)"><g clip-path="url(#97e75c485e)"><g clip-path="url(#9b968b260f)"><path fill="#5d92e8" d="M 0.527344 0.855469 L 12.515625 0.855469 L 12.515625 12.839844 L 0.527344 12.839844 Z M 0.527344 0.855469 " fill-opacity="1" fill-rule="nonzero"/></g></g></g></g></g></g><g clip-path="url(#3b6b391fae)"><g clip-path="url(#5db063e081)"><g transform="matrix(1, 0, 0, 1, 240, 484)"><g clip-path="url(#f79009b44d)"><g clip-path="url(#dbed6cdbe4)"><g clip-path="url(#b7d7449c54)"><path fill="#5d92e8" d="M 0.179688 0.183594 L 12.167969 0.183594 L 12.167969 12.171875 L 0.179688 12.171875 Z M 0.179688 0.183594 " fill-opacity="1" fill-rule="nonzero"/></g></g></g></g></g></g><g clip-path="url(#8692b4d39c)"><g clip-path="url(#e76e629de7)"><g transform="matrix(1, 0, 0, 1, 261, 480)"><g clip-path="url(#add4ffde6c)"><g clip-path="url(#833adb2017)"><g clip-path="url(#14e4a73873)"><path fill="#5d92e8" d="M 0.292969 0.292969 L 12.277344 0.292969 L 12.277344 12.277344 L 0.292969 12.277344 Z M 0.292969 0.292969 " fill-opacity="1" fill-rule="nonzero"/></g></g></g></g></g></g><g clip-path="url(#6ec1d1bf52)"><g clip-path="url(#8aae9a1f05)"><g transform="matrix(1, 0, 0, 1, 154, 224)"><g clip-path="url(#246305c9b9)"><g clip-path="url(#116873aab8)"><g clip-path="url(#2d4e0fba4c)"><path fill="#b4b4b4" d="M 0.0820312 0.699219 L 56.589844 0.699219 L 56.589844 5.171875 L 0.0820312 5.171875 Z M 0.0820312 0.699219 " fill-opacity="1" fill-rule="nonzero"/></g></g></g></g></g></g><g clip-path="url(#0443d33d1d)"><g transform="matrix(1, 0, 0, 1, 149, 195)"><g clip-path="url(#cda7bcf668)"><g clip-path="url(#242c49fc5d)"><path fill="#4681df" d="M 135.828125 29.6875 L 0.0820312 29.6875 L 0.0820312 0.484375 L 135.828125 0.484375 Z M 135.828125 29.6875 " fill-opacity="1" fill-rule="nonzero"/></g></g></g></g><g clip-path="url(#ec44bd9f9f)"><g clip-path="url(#ac2ab0cc8c)"><g transform="matrix(1, 0, 0, 1, 178, 195)"><g clip-path="url(#4c7cbba840)"><g clip-path="url(#d806915cfb)"><g clip-path="url(#82ed1dea4f)"><path fill="#b4b4b4" d="M 0.613281 17.019531 L 0.613281 0.96875 L 5.089844 0.96875 L 5.089844 17.019531 Z M 0.613281 17.019531 " fill-opacity="1" fill-rule="nonzero"/></g></g></g></g></g></g><g clip-path="url(#d5b0a3e4da)"><g transform="matrix(1, 0, 0, 1, 183, 195)"><g clip-path="url(#90a4ab3ac7)"><g clip-path="url(#66967412c9)"><path fill="#7eaaf1" d="M 102.003906 7.117188 L 0.0703125 7.117188 L 0.0703125 0.488281 L 102.003906 0.488281 Z M 102.003906 7.117188 " fill-opacity="1" fill-rule="nonzero"/></g></g></g></g><g clip-path="url(#bddf5db702)"><g transform="matrix(1, 0, 0, 1, 183, 202)"><g clip-path="url(#5f99afed82)"><g clip-path="url(#4d0226ac36)"><path fill="#5f97f1" d="M 102.003906 6.335938 L 0.0742188 6.335938 L 0.0742188 0.117188 L 102.003906 0.117188 Z M 102.003906 6.335938 " fill-opacity="1" fill-rule="nonzero"/></g></g></g></g><g clip-path="url(#982daaaa9e)"><g transform="matrix(1, 0, 0, 1, 210, 213)"><g clip-path="url(#34c708ad16)"><g clip-path="url(#385ed3c87c)"><path fill="#4279d1" d="M 75.011719 6.140625 L 0.0820312 6.140625 L 0.0820312 0.882812 L 75.011719 0.882812 Z M 75.011719 6.140625 " fill-opacity="1" fill-rule="nonzero"/></g></g></g></g><g clip-path="url(#6ceea95715)"><g transform="matrix(1, 0, 0, 1, 210, 219)"><g clip-path="url(#40cd4619a7)"><g clip-path="url(#487b13107a)"><path fill="#186cf1" d="M 75.011719 5.953125 L 0.0820312 5.953125 L 0.0820312 0.691406 L 75.011719 0.691406 Z M 75.011719 5.953125 " fill-opacity="1" fill-rule="nonzero"/></g></g></g></g></svg>