<svg xmlns="http://www.w3.org/2000/svg" xmlns:xlink="http://www.w3.org/1999/xlink" width="640" zoomAndPan="magnify" viewBox="0 0 480 749.999995" height="1000" preserveAspectRatio="xMidYMid meet" version="1.0"><defs><clipPath id="01856d6be3"><path d="M 0 0 L 480 0 L 480 750 L 0 750 Z M 0 0 " clip-rule="nonzero"/></clipPath><clipPath id="2f7cd7d42f"><rect x="0" width="480" y="0" height="750"/></clipPath><clipPath id="9f380d9cca"><path d="M 13.605469 262.304688 L 111.230469 262.304688 L 111.230469 720.042969 L 13.605469 720.042969 Z M 13.605469 262.304688 " clip-rule="nonzero"/></clipPath><clipPath id="1c5a4055e3"><path d="M 0.605469 0.304688 L 98.230469 0.304688 L 98.230469 458 L 0.605469 458 Z M 0.605469 0.304688 " clip-rule="nonzero"/></clipPath><clipPath id="cce7fa095e"><rect x="0" width="99" y="0" height="459"/></clipPath><clipPath id="5c30b2b8f5"><path d="M 144.53125 187.253906 L 293.757812 187.253906 L 293.757812 559.070312 L 144.53125 559.070312 Z M 144.53125 187.253906 " clip-rule="nonzero"/></clipPath><clipPath id="72229f6e5f"><path d="M 0.53125 0.253906 L 149.757812 0.253906 L 149.757812 372.070312 L 0.53125 372.070312 Z M 0.53125 0.253906 " clip-rule="nonzero"/></clipPath><clipPath id="fa828380e3"><rect x="0" width="150" y="0" height="373"/></clipPath><clipPath id="708fa16919"><path d="M 144.53125 187.265625 L 293.75 187.265625 L 293.75 559.066406 L 144.53125 559.066406 Z M 144.53125 187.265625 " clip-rule="nonzero"/></clipPath><clipPath id="8036eb3185"><path d="M 217.960938 497.976562 L 316.609375 497.976562 L 316.609375 596.621094 L 217.960938 596.621094 Z M 217.960938 497.976562 " clip-rule="nonzero"/></clipPath><clipPath id="cfaba85afd"><path d="M 267.285156 497.976562 C 240.042969 497.976562 217.960938 520.058594 217.960938 547.296875 C 217.960938 574.539062 240.042969 596.621094 267.285156 596.621094 C 294.523438 596.621094 316.609375 574.539062 316.609375 547.296875 C 316.609375 520.058594 294.523438 497.976562 267.285156 497.976562 Z M 267.285156 497.976562 " clip-rule="nonzero"/></clipPath><clipPath id="43449086eb"><path d="M 0.960938 0.976562 L 99.609375 0.976562 L 99.609375 99.621094 L 0.960938 99.621094 Z M 0.960938 0.976562 " clip-rule="nonzero"/></clipPath><clipPath id="ee0409694c"><path d="M 50.285156 0.976562 C 23.042969 0.976562 0.960938 23.058594 0.960938 50.296875 C 0.960938 77.539062 23.042969 99.621094 50.285156 99.621094 C 77.523438 99.621094 99.609375 77.539062 99.609375 50.296875 C 99.609375 23.058594 77.523438 0.976562 50.285156 0.976562 Z M 50.285156 0.976562 " clip-rule="nonzero"/></clipPath><clipPath id="2ff0db210a"><rect x="0" width="100" y="0" height="100"/></clipPath><clipPath id="df4d740b43"><path d="M 217.960938 497.976562 L 316.445312 497.976562 L 316.445312 596.460938 L 217.960938 596.460938 Z M 217.960938 497.976562 " clip-rule="nonzero"/></clipPath><clipPath id="d57b5787e2"><path d="M 267.28125 497.976562 C 240.042969 497.976562 217.960938 520.054688 217.960938 547.292969 C 217.960938 574.53125 240.042969 596.613281 267.28125 596.613281 C 294.519531 596.613281 316.601562 574.53125 316.601562 547.292969 C 316.601562 520.054688 294.519531 497.976562 267.28125 497.976562 Z M 267.28125 497.976562 " clip-rule="nonzero"/></clipPath><clipPath id="72056a8050"><path d="M 219.144531 559.078125 L 313.296875 559.078125 L 313.296875 602.652344 L 219.144531 602.652344 Z M 219.144531 559.078125 " clip-rule="nonzero"/></clipPath><clipPath id="a37e8ee98a"><path d="M 0.144531 0.078125 L 94.296875 0.078125 L 94.296875 43.652344 L 0.144531 43.652344 Z M 0.144531 0.078125 " clip-rule="nonzero"/></clipPath><clipPath id="f4dcd5a3ec"><rect x="0" width="95" y="0" height="44"/></clipPath><clipPath id="50032f3236"><path d="M 280.480469 502.5625 L 329.695312 502.5625 L 329.695312 602.652344 L 280.480469 602.652344 Z M 280.480469 502.5625 " clip-rule="nonzero"/></clipPath><clipPath id="3b322f5a00"><path d="M 0.480469 0.5625 L 49.695312 0.5625 L 49.695312 100.652344 L 0.480469 100.652344 Z M 0.480469 0.5625 " clip-rule="nonzero"/></clipPath><clipPath id="8e0b736da6"><rect x="0" width="50" y="0" height="101"/></clipPath><clipPath id="b8397e0fd6"><path d="M 85.894531 138.214844 L 183.984375 138.214844 L 183.984375 236.304688 L 85.894531 236.304688 Z M 85.894531 138.214844 " clip-rule="nonzero"/></clipPath><clipPath id="d0daaf3437"><path d="M 134.941406 138.214844 C 107.851562 138.214844 85.894531 160.171875 85.894531 187.261719 C 85.894531 214.347656 107.851562 236.304688 134.941406 236.304688 C 162.027344 236.304688 183.984375 214.347656 183.984375 187.261719 C 183.984375 160.171875 162.027344 138.214844 134.941406 138.214844 Z M 134.941406 138.214844 " clip-rule="nonzero"/></clipPath><clipPath id="55eb9557e3"><path d="M 0.894531 0.214844 L 98.984375 0.214844 L 98.984375 98.304688 L 0.894531 98.304688 Z M 0.894531 0.214844 " clip-rule="nonzero"/></clipPath><clipPath id="4bf9f98ba6"><path d="M 49.941406 0.214844 C 22.851562 0.214844 0.894531 22.171875 0.894531 49.261719 C 0.894531 76.347656 22.851562 98.304688 49.941406 98.304688 C 77.027344 98.304688 98.984375 76.347656 98.984375 49.261719 C 98.984375 22.171875 77.027344 0.214844 49.941406 0.214844 Z M 49.941406 0.214844 " clip-rule="nonzero"/></clipPath><clipPath id="f41e8872ce"><rect x="0" width="99" y="0" height="99"/></clipPath><clipPath id="7cb009d27c"><path d="M 85.894531 138.214844 L 183.980469 138.214844 L 183.980469 236.300781 L 85.894531 236.300781 Z M 85.894531 138.214844 " clip-rule="nonzero"/></clipPath><clipPath id="2d6d270b41"><path d="M 134.9375 138.214844 C 107.851562 138.214844 85.894531 160.171875 85.894531 187.257812 C 85.894531 214.34375 107.851562 236.300781 134.9375 236.300781 C 162.023438 236.300781 183.980469 214.34375 183.980469 187.257812 C 183.980469 160.171875 162.023438 138.214844 134.9375 138.214844 Z M 134.9375 138.214844 " clip-rule="nonzero"/></clipPath><clipPath id="420268f74e"><path d="M 155.65625 198.050781 L 280.46875 198.050781 L 280.46875 247.589844 L 155.65625 247.589844 Z M 155.65625 198.050781 " clip-rule="nonzero"/></clipPath><clipPath id="fe4d32b4c1"><path d="M 0.65625 0.0507812 L 125.46875 0.0507812 L 125.46875 49.589844 L 0.65625 49.589844 Z M 0.65625 0.0507812 " clip-rule="nonzero"/></clipPath><clipPath id="ddc340c026"><rect x="0" width="126" y="0" height="50"/></clipPath><clipPath id="28308986b6"><path d="M 0 0 L 480 0 L 480 68 L 0 68 Z M 0 0 " clip-rule="nonzero"/></clipPath><clipPath id="cdc5011973"><path d="M 503.363281 -98.078125 L 512.332031 -0.867188 L -224.425781 67.097656 L -233.394531 -30.113281 Z M 503.363281 -98.078125 " clip-rule="nonzero"/></clipPath><clipPath id="a1250f8727"><path d="M 0 0 L 480 0 L 480 67.199219 L 0 67.199219 Z M 0 0 " clip-rule="nonzero"/></clipPath><clipPath id="af60a3b501"><path d="M 503.363281 -98.078125 L 512.332031 -0.867188 L -224.425781 67.097656 L -233.394531 -30.113281 Z M 503.363281 -98.078125 " clip-rule="nonzero"/></clipPath><clipPath id="a2b5de8f94"><rect x="0" width="480" y="0" height="68"/></clipPath><clipPath id="54b50d5195"><path d="M 447.554688 133.382812 L 467.332031 133.382812 L 467.332031 635.265625 L 447.554688 635.265625 Z M 447.554688 133.382812 " clip-rule="nonzero"/></clipPath><clipPath id="c6c27c1bb8"><path d="M 0.554688 0.382812 L 20.332031 0.382812 L 20.332031 502.265625 L 0.554688 502.265625 Z M 0.554688 0.382812 " clip-rule="nonzero"/></clipPath><clipPath id="c3e7552849"><rect x="0" width="21" y="0" height="503"/></clipPath><clipPath id="33c5c623c6"><path d="M 222.527344 39.890625 L 467.332031 39.890625 L 467.332031 133.382812 L 222.527344 133.382812 Z M 222.527344 39.890625 " clip-rule="nonzero"/></clipPath><clipPath id="32c5d79541"><path d="M 0.527344 0.890625 L 245.332031 0.890625 L 245.332031 94.382812 L 0.527344 94.382812 Z M 0.527344 0.890625 " clip-rule="nonzero"/></clipPath><clipPath id="60d625df34"><rect x="0" width="246" y="0" height="95"/></clipPath><clipPath id="98dc9b6947"><path d="M 445.886719 15.609375 L 467.332031 15.609375 L 467.332031 108.3125 L 445.886719 108.3125 Z M 445.886719 15.609375 " clip-rule="nonzero"/></clipPath><clipPath id="d974ebc5d4"><path d="M 0.886719 0.609375 L 22.332031 0.609375 L 22.332031 93.3125 L 0.886719 93.3125 Z M 0.886719 0.609375 " clip-rule="nonzero"/></clipPath><clipPath id="c23cd4bdc5"><rect x="0" width="23" y="0" height="94"/></clipPath><clipPath id="85ace77aa7"><path d="M 222 15 L 452 15 L 452 87 L 222 87 Z M 222 15 " clip-rule="nonzero"/></clipPath><clipPath id="880c6185e2"><path d="M 222.53125 35.195312 L 446.945312 15.609375 L 451.433594 67.050781 L 227.019531 86.636719 Z M 222.53125 35.195312 " clip-rule="nonzero"/></clipPath><clipPath id="dee934a2e6"><path d="M 0.480469 0.601562 L 229.441406 0.601562 L 229.441406 71.640625 L 0.480469 71.640625 Z M 0.480469 0.601562 " clip-rule="nonzero"/></clipPath><clipPath id="b69be2fad8"><path d="M 0.53125 20.195312 L 224.945312 0.609375 L 229.433594 52.050781 L 5.019531 71.636719 Z M 0.53125 20.195312 " clip-rule="nonzero"/></clipPath><clipPath id="0ba6f901b1"><rect x="0" width="230" y="0" height="72"/></clipPath><clipPath id="9fe90f1a89"><path d="M 222.527344 35.769531 L 242.734375 35.769531 L 242.734375 112.425781 L 222.527344 112.425781 Z M 222.527344 35.769531 " clip-rule="nonzero"/></clipPath><clipPath id="156322b881"><path d="M 0.527344 0.769531 L 20.734375 0.769531 L 20.734375 77.425781 L 0.527344 77.425781 Z M 0.527344 0.769531 " clip-rule="nonzero"/></clipPath><clipPath id="b2b1354ab2"><rect x="0" width="21" y="0" height="78"/></clipPath><clipPath id="d23b76df3e"><path d="M 5 43 L 103 43 L 103 113 L 5 113 Z M 5 43 " clip-rule="nonzero"/></clipPath><clipPath id="4b0fa79a43"><path d="M 5.578125 50.484375 L 97.328125 43.046875 L 102.347656 104.996094 L 10.597656 112.433594 Z M 5.578125 50.484375 " clip-rule="nonzero"/></clipPath><clipPath id="69a0a87712"><path d="M 0.519531 0 L 97.480469 0 L 97.480469 69.558594 L 0.519531 69.558594 Z M 0.519531 0 " clip-rule="nonzero"/></clipPath><clipPath id="31c1e4ba1d"><path d="M 0.578125 7.484375 L 92.328125 0.046875 L 97.347656 61.996094 L 5.597656 69.433594 Z M 0.578125 7.484375 " clip-rule="nonzero"/></clipPath><clipPath id="a320f83bd7"><rect x="0" width="98" y="0" height="70"/></clipPath><clipPath id="cf1ce509dd"><path d="M 275 580 L 480 580 L 480 750 L 275 750 Z M 275 580 " clip-rule="nonzero"/></clipPath><clipPath id="b630058e44"><path d="M 541.460938 580.863281 L 607.660156 652.613281 L 341.800781 897.910156 L 275.601562 826.164062 Z M 541.460938 580.863281 " clip-rule="nonzero"/></clipPath><clipPath id="c28063628e"><path d="M 0.519531 0.800781 L 205 0.800781 L 205 170 L 0.519531 170 Z M 0.519531 0.800781 " clip-rule="nonzero"/></clipPath><clipPath id="2e6a99264b"><path d="M 266.460938 0.863281 L 332.660156 72.613281 L 66.800781 317.910156 L 0.601562 246.164062 Z M 266.460938 0.863281 " clip-rule="nonzero"/></clipPath><clipPath id="aa77b1aa71"><rect x="0" width="205" y="0" height="170"/></clipPath><clipPath id="f8941a8f28"><path d="M 200.210938 530.550781 L 212.195312 530.550781 L 212.195312 542.539062 L 200.210938 542.539062 Z M 200.210938 530.550781 " clip-rule="nonzero"/></clipPath><clipPath id="fb581a26d4"><path d="M 206.203125 530.550781 C 202.894531 530.550781 200.210938 533.234375 200.210938 536.542969 C 200.210938 539.855469 202.894531 542.539062 206.203125 542.539062 C 209.515625 542.539062 212.195312 539.855469 212.195312 536.542969 C 212.195312 533.234375 209.515625 530.550781 206.203125 530.550781 Z M 206.203125 530.550781 " clip-rule="nonzero"/></clipPath><clipPath id="5ccb834042"><path d="M 0.210938 0.550781 L 12.195312 0.550781 L 12.195312 12.539062 L 0.210938 12.539062 Z M 0.210938 0.550781 " clip-rule="nonzero"/></clipPath><clipPath id="6d7c66c59a"><path d="M 6.203125 0.550781 C 2.894531 0.550781 0.210938 3.234375 0.210938 6.542969 C 0.210938 9.855469 2.894531 12.539062 6.203125 12.539062 C 9.515625 12.539062 12.195312 9.855469 12.195312 6.542969 C 12.195312 3.234375 9.515625 0.550781 6.203125 0.550781 Z M 6.203125 0.550781 " clip-rule="nonzero"/></clipPath><clipPath id="0fdad4da02"><rect x="0" width="13" y="0" height="13"/></clipPath><clipPath id="20668d1823"><path d="M 207.15625 511.46875 L 219.144531 511.46875 L 219.144531 523.457031 L 207.15625 523.457031 Z M 207.15625 511.46875 " clip-rule="nonzero"/></clipPath><clipPath id="66928f468a"><path d="M 213.148438 511.46875 C 209.839844 511.46875 207.15625 514.152344 207.15625 517.464844 C 207.15625 520.773438 209.839844 523.457031 213.148438 523.457031 C 216.460938 523.457031 219.144531 520.773438 219.144531 517.464844 C 219.144531 514.152344 216.460938 511.46875 213.148438 511.46875 Z M 213.148438 511.46875 " clip-rule="nonzero"/></clipPath><clipPath id="e0a06706a1"><path d="M 0.15625 0.46875 L 12.144531 0.46875 L 12.144531 12.457031 L 0.15625 12.457031 Z M 0.15625 0.46875 " clip-rule="nonzero"/></clipPath><clipPath id="aeadbcb01d"><path d="M 6.148438 0.46875 C 2.839844 0.46875 0.15625 3.152344 0.15625 6.464844 C 0.15625 9.773438 2.839844 12.457031 6.148438 12.457031 C 9.460938 12.457031 12.144531 9.773438 12.144531 6.464844 C 12.144531 3.152344 9.460938 0.46875 6.148438 0.46875 Z M 6.148438 0.46875 " clip-rule="nonzero"/></clipPath><clipPath id="e576dfc376"><rect x="0" width="13" y="0" height="13"/></clipPath><clipPath id="23224db0c0"><path d="M 222.527344 493.855469 L 234.515625 493.855469 L 234.515625 505.839844 L 222.527344 505.839844 Z M 222.527344 493.855469 " clip-rule="nonzero"/></clipPath><clipPath id="6592f8b8b0"><path d="M 228.523438 493.855469 C 225.210938 493.855469 222.527344 496.539062 222.527344 499.847656 C 222.527344 503.15625 225.210938 505.839844 228.523438 505.839844 C 231.832031 505.839844 234.515625 503.15625 234.515625 499.847656 C 234.515625 496.539062 231.832031 493.855469 228.523438 493.855469 Z M 228.523438 493.855469 " clip-rule="nonzero"/></clipPath><clipPath id="a5ce7c7eeb"><path d="M 0.527344 0.855469 L 12.515625 0.855469 L 12.515625 12.839844 L 0.527344 12.839844 Z M 0.527344 0.855469 " clip-rule="nonzero"/></clipPath><clipPath id="33bddde7ee"><path d="M 6.523438 0.855469 C 3.210938 0.855469 0.527344 3.539062 0.527344 6.847656 C 0.527344 10.15625 3.210938 12.839844 6.523438 12.839844 C 9.832031 12.839844 12.515625 10.15625 12.515625 6.847656 C 12.515625 3.539062 9.832031 0.855469 6.523438 0.855469 Z M 6.523438 0.855469 " clip-rule="nonzero"/></clipPath><clipPath id="19e7ab6409"><rect x="0" width="13" y="0" height="13"/></clipPath><clipPath id="2849373a5a"><path d="M 240.179688 484.183594 L 252.167969 484.183594 L 252.167969 496.171875 L 240.179688 496.171875 Z M 240.179688 484.183594 " clip-rule="nonzero"/></clipPath><clipPath id="0963365080"><path d="M 246.175781 484.183594 C 242.863281 484.183594 240.179688 486.867188 240.179688 490.175781 C 240.179688 493.488281 242.863281 496.171875 246.175781 496.171875 C 249.484375 496.171875 252.167969 493.488281 252.167969 490.175781 C 252.167969 486.867188 249.484375 484.183594 246.175781 484.183594 Z M 246.175781 484.183594 " clip-rule="nonzero"/></clipPath><clipPath id="c1636d5c8c"><path d="M 0.179688 0.183594 L 12.167969 0.183594 L 12.167969 12.171875 L 0.179688 12.171875 Z M 0.179688 0.183594 " clip-rule="nonzero"/></clipPath><clipPath id="4e4405d657"><path d="M 6.175781 0.183594 C 2.863281 0.183594 0.179688 2.867188 0.179688 6.175781 C 0.179688 9.488281 2.863281 12.171875 6.175781 12.171875 C 9.484375 12.171875 12.167969 9.488281 12.167969 6.175781 C 12.167969 2.867188 9.484375 0.183594 6.175781 0.183594 Z M 6.175781 0.183594 " clip-rule="nonzero"/></clipPath><clipPath id="9ff397d876"><rect x="0" width="13" y="0" height="13"/></clipPath><clipPath id="af174fbc4e"><path d="M 261.292969 480.292969 L 273.277344 480.292969 L 273.277344 492.277344 L 261.292969 492.277344 Z M 261.292969 480.292969 " clip-rule="nonzero"/></clipPath><clipPath id="17f9a3b39e"><path d="M 267.285156 480.292969 C 263.972656 480.292969 261.292969 482.976562 261.292969 486.285156 C 261.292969 489.59375 263.972656 492.277344 267.285156 492.277344 C 270.59375 492.277344 273.277344 489.59375 273.277344 486.285156 C 273.277344 482.976562 270.59375 480.292969 267.285156 480.292969 Z M 267.285156 480.292969 " clip-rule="nonzero"/></clipPath><clipPath id="d8711e9536"><path d="M 0.292969 0.292969 L 12.277344 0.292969 L 12.277344 12.277344 L 0.292969 12.277344 Z M 0.292969 0.292969 " clip-rule="nonzero"/></clipPath><clipPath id="22dcbeff5b"><path d="M 6.285156 0.292969 C 2.972656 0.292969 0.292969 2.976562 0.292969 6.285156 C 0.292969 9.59375 2.972656 12.277344 6.285156 12.277344 C 9.59375 12.277344 12.277344 9.59375 12.277344 6.285156 C 12.277344 2.976562 9.59375 0.292969 6.285156 0.292969 Z M 6.285156 0.292969 " clip-rule="nonzero"/></clipPath><clipPath id="c67ffa235e"><rect x="0" width="13" y="0" height="13"/></clipPath><clipPath id="e6eff89f99"><rect x="0" width="480" y="0" height="750"/></clipPath></defs><rect x="-48" width="576" fill="#ffffff" y="-74.999999" height="899.999994" fill-opacity="1"/><rect x="-48" width="576" fill="#ffffff" y="-74.999999" height="899.999994" fill-opacity="1"/><g transform="matrix(1, 0, 0, 1, 0, -0.000000000000042435)"><g clip-path="url(#2f7cd7d42f)"><g clip-path="url(#01856d6be3)"><rect x="-105.6" width="691.2" fill="#b4b4b4" height="1079.999992" y="-164.999999" fill-opacity="1"/></g></g></g><g transform="matrix(1, 0, 0, 1, 0, -0.000000000000042435)"><g clip-path="url(#e6eff89f99)"><g clip-path="url(#9f380d9cca)"><g transform="matrix(1, 0, 0, 1, 13, 262)"><g clip-path="url(#cce7fa095e)"><g clip-path="url(#1c5a4055e3)"><path fill="#087958" d="M 0.605469 0.304688 L 98.230469 0.304688 L 98.230469 457.921875 L 0.605469 457.921875 Z M 0.605469 0.304688 " fill-opacity="1" fill-rule="nonzero"/></g></g></g></g><g clip-path="url(#5c30b2b8f5)"><g transform="matrix(1, 0, 0, 1, 144, 187)"><g clip-path="url(#fa828380e3)"><g clip-path="url(#72229f6e5f)"><path fill="#2f6bcb" d="M 0.53125 372.070312 L 0.53125 0.167969 L 149.757812 0.167969 L 149.757812 372.070312 Z M 0.53125 372.070312 " fill-opacity="1" fill-rule="nonzero"/></g></g></g></g><g clip-path="url(#708fa16919)"><path stroke-linecap="butt" transform="matrix(0, -0.984854, 0.984854, 0, 144.530267, 559.071665)" fill="none" stroke-linejoin="miter" d="M 0.00533937 0.000997658 L 377.524022 0.000997658 L 377.524022 151.514573 L 0.00533937 151.514573 Z M 0.00533937 0.000997658 " stroke="#ffffff" stroke-width="16.753752" stroke-opacity="1" stroke-miterlimit="4"/></g><g clip-path="url(#8036eb3185)"><g clip-path="url(#cfaba85afd)"><g transform="matrix(1, 0, 0, 1, 217, 497)"><g clip-path="url(#2ff0db210a)"><g clip-path="url(#43449086eb)"><g clip-path="url(#ee0409694c)"><path fill="#d1cccc" d="M 0.960938 0.976562 L 99.609375 0.976562 L 99.609375 99.621094 L 0.960938 99.621094 Z M 0.960938 0.976562 " fill-opacity="1" fill-rule="nonzero"/></g></g></g></g></g></g><g clip-path="url(#df4d740b43)"><g clip-path="url(#d57b5787e2)"><path stroke-linecap="butt" transform="matrix(0.984854, 0, 0, 0.984854, 217.961168, 497.974868)" fill="none" stroke-linejoin="miter" d="M 50.078573 0.00172083 C 22.421396 0.00172083 -0.000233917 22.419384 -0.000233917 50.076561 C -0.000233917 77.733738 22.421396 100.155368 50.078573 100.155368 C 77.73575 100.155368 100.157379 77.733738 100.157379 50.076561 C 100.157379 22.419384 77.73575 0.00172083 50.078573 0.00172083 Z M 50.078573 0.00172083 " stroke="#ffffff" stroke-width="9.13841" stroke-opacity="1" stroke-miterlimit="4"/></g></g><g clip-path="url(#72056a8050)"><g transform="matrix(1, 0, 0, 1, 219, 559)"><g clip-path="url(#f4dcd5a3ec)"><g clip-path="url(#a37e8ee98a)"><path fill="#ffffff" d="M 0.144531 0.078125 L 94.265625 0.078125 L 94.265625 43.652344 L 0.144531 43.652344 Z M 0.144531 0.078125 " fill-opacity="1" fill-rule="nonzero"/></g></g></g></g><g clip-path="url(#50032f3236)"><g transform="matrix(1, 0, 0, 1, 280, 502)"><g clip-path="url(#8e0b736da6)"><g clip-path="url(#3b322f5a00)"><path fill="#ffffff" d="M 0.480469 0.5625 L 49.695312 0.5625 L 49.695312 100.722656 L 0.480469 100.722656 Z M 0.480469 0.5625 " fill-opacity="1" fill-rule="nonzero"/></g></g></g></g><g clip-path="url(#b8397e0fd6)"><g clip-path="url(#d0daaf3437)"><g transform="matrix(1, 0, 0, 1, 85, 138)"><g clip-path="url(#f41e8872ce)"><g clip-path="url(#55eb9557e3)"><g clip-path="url(#4bf9f98ba6)"><path fill="#2f6bcb" d="M 0.894531 0.214844 L 98.984375 0.214844 L 98.984375 98.304688 L 0.894531 98.304688 Z M 0.894531 0.214844 " fill-opacity="1" fill-rule="nonzero"/></g></g></g></g></g></g><g clip-path="url(#7cb009d27c)"><g clip-path="url(#2d6d270b41)"><path stroke-linecap="butt" transform="matrix(0.984854, 0, 0, 0.984854, 85.894817, 138.214319)" fill="none" stroke-linejoin="miter" d="M 49.796908 0.000532958 C 22.294417 0.000532958 -0.00028985 22.29524 -0.00028985 49.79773 C -0.00028985 77.300221 22.294417 99.594928 49.796908 99.594928 C 77.299398 99.594928 99.594105 77.300221 99.594105 49.79773 C 99.594105 22.29524 77.299398 0.000532958 49.796908 0.000532958 Z M 49.796908 0.000532958 " stroke="#ffffff" stroke-width="16.753752" stroke-opacity="1" stroke-miterlimit="4"/></g></g><g clip-path="url(#420268f74e)"><g transform="matrix(1, 0, 0, 1, 155, 198)"><g clip-path="url(#ddc340c026)"><g clip-path="url(#fe4d32b4c1)"><path fill="#2f6bcb" d="M 125.46875 49.589844 L 0.652344 49.589844 L 0.652344 0.0507812 L 125.46875 0.0507812 Z M 125.46875 49.589844 " fill-opacity="1" fill-rule="nonzero"/></g></g></g></g><g clip-path="url(#28308986b6)"><g clip-path="url(#cdc5011973)"><g transform="matrix(1, 0, 0, 1, 0, -0.000000000000042435)"><g clip-path="url(#a2b5de8f94)"><g clip-path="url(#a1250f8727)"><g clip-path="url(#af60a3b501)"><path fill="#ffffff" d="M 503.363281 -98.078125 L 512.332031 -0.867188 L -224.351562 67.089844 L -233.320312 -30.121094 Z M 503.363281 -98.078125 " fill-opacity="1" fill-rule="nonzero"/></g></g></g></g></g></g><g clip-path="url(#54b50d5195)"><g transform="matrix(1, 0, 0, 1, 447, 133)"><g clip-path="url(#c3e7552849)"><g clip-path="url(#c6c27c1bb8)"><path fill="#087958" d="M 0.554688 0.382812 L 20.332031 0.382812 L 20.332031 502.285156 L 0.554688 502.285156 Z M 0.554688 0.382812 " fill-opacity="1" fill-rule="nonzero"/></g></g></g></g><g clip-path="url(#33c5c623c6)"><g transform="matrix(1, 0, 0, 1, 222, 39)"><g clip-path="url(#60d625df34)"><g clip-path="url(#32c5d79541)"><path fill="#087958" d="M 0.527344 0.890625 L 245.214844 0.890625 L 245.214844 94.382812 L 0.527344 94.382812 Z M 0.527344 0.890625 " fill-opacity="1" fill-rule="nonzero"/></g></g></g></g><g clip-path="url(#98dc9b6947)"><g transform="matrix(1, 0, 0, 1, 445, 15)"><g clip-path="url(#c23cd4bdc5)"><g clip-path="url(#d974ebc5d4)"><path fill="#087958" d="M 0.886719 0.609375 L 22.332031 0.609375 L 22.332031 93.347656 L 0.886719 93.347656 Z M 0.886719 0.609375 " fill-opacity="1" fill-rule="nonzero"/></g></g></g></g><g clip-path="url(#85ace77aa7)"><g clip-path="url(#880c6185e2)"><g transform="matrix(1, 0, 0, 1, 222, 15)"><g clip-path="url(#0ba6f901b1)"><g clip-path="url(#dee934a2e6)"><g clip-path="url(#b69be2fad8)"><path fill="#087958" d="M 0.53125 20.195312 L 224.980469 0.605469 L 229.472656 52.046875 L 5.019531 71.636719 Z M 0.53125 20.195312 " fill-opacity="1" fill-rule="nonzero"/></g></g></g></g></g></g><g clip-path="url(#9fe90f1a89)"><g transform="matrix(1, 0, 0, 1, 222, 35)"><g clip-path="url(#b2b1354ab2)"><g clip-path="url(#156322b881)"><path fill="#087958" d="M 0.527344 77.425781 L 0.527344 0.777344 L 20.734375 0.777344 L 20.734375 77.425781 Z M 0.527344 77.425781 " fill-opacity="1" fill-rule="nonzero"/></g></g></g></g><g clip-path="url(#d23b76df3e)"><g clip-path="url(#4b0fa79a43)"><g transform="matrix(1, 0, 0, 1, 5, 43)"><g clip-path="url(#a320f83bd7)"><g clip-path="url(#69a0a87712)"><g clip-path="url(#31c1e4ba1d)"><path fill="#ffffff" d="M 0.578125 7.484375 L 92.292969 0.0507812 L 97.3125 62 L 5.597656 69.433594 Z M 0.578125 7.484375 " fill-opacity="1" fill-rule="nonzero"/></g></g></g></g></g></g><g clip-path="url(#cf1ce509dd)"><g clip-path="url(#b630058e44)"><g transform="matrix(1, 0, 0, 1, 275, 580)"><g clip-path="url(#aa77b1aa71)"><g clip-path="url(#c28063628e)"><g clip-path="url(#2e6a99264b)"><path fill="#ffffff" d="M 266.460938 0.863281 L 332.660156 72.613281 L 66.683594 318.023438 L 0.480469 246.273438 Z M 266.460938 0.863281 " fill-opacity="1" fill-rule="nonzero"/></g></g></g></g></g></g><g clip-path="url(#f8941a8f28)"><g clip-path="url(#fb581a26d4)"><g transform="matrix(1, 0, 0, 1, 200, 530)"><g clip-path="url(#0fdad4da02)"><g clip-path="url(#5ccb834042)"><g clip-path="url(#6d7c66c59a)"><path fill="#5d92e8" d="M 0.210938 0.550781 L 12.195312 0.550781 L 12.195312 12.539062 L 0.210938 12.539062 Z M 0.210938 0.550781 " fill-opacity="1" fill-rule="nonzero"/></g></g></g></g></g></g><g clip-path="url(#20668d1823)"><g clip-path="url(#66928f468a)"><g transform="matrix(1, 0, 0, 1, 207, 511)"><g clip-path="url(#e576dfc376)"><g clip-path="url(#e0a06706a1)"><g clip-path="url(#aeadbcb01d)"><path fill="#5d92e8" d="M 0.15625 0.46875 L 12.144531 0.46875 L 12.144531 12.457031 L 0.15625 12.457031 Z M 0.15625 0.46875 " fill-opacity="1" fill-rule="nonzero"/></g></g></g></g></g></g><g clip-path="url(#23224db0c0)"><g clip-path="url(#6592f8b8b0)"><g transform="matrix(1, 0, 0, 1, 222, 493)"><g clip-path="url(#19e7ab6409)"><g clip-path="url(#a5ce7c7eeb)"><g clip-path="url(#33bddde7ee)"><path fill="#5d92e8" d="M 0.527344 0.855469 L 12.515625 0.855469 L 12.515625 12.839844 L 0.527344 12.839844 Z M 0.527344 0.855469 " fill-opacity="1" fill-rule="nonzero"/></g></g></g></g></g></g><g clip-path="url(#2849373a5a)"><g clip-path="url(#0963365080)"><g transform="matrix(1, 0, 0, 1, 240, 484)"><g clip-path="url(#9ff397d876)"><g clip-path="url(#c1636d5c8c)"><g clip-path="url(#4e4405d657)"><path fill="#5d92e8" d="M 0.179688 0.183594 L 12.167969 0.183594 L 12.167969 12.171875 L 0.179688 12.171875 Z M 0.179688 0.183594 " fill-opacity="1" fill-rule="nonzero"/></g></g></g></g></g></g><g clip-path="url(#af174fbc4e)"><g clip-path="url(#17f9a3b39e)"><g transform="matrix(1, 0, 0, 1, 261, 480)"><g clip-path="url(#c67ffa235e)"><g clip-path="url(#d8711e9536)"><g clip-path="url(#22dcbeff5b)"><path fill="#5d92e8" d="M 0.292969 0.292969 L 12.277344 0.292969 L 12.277344 12.277344 L 0.292969 12.277344 Z M 0.292969 0.292969 " fill-opacity="1" fill-rule="nonzero"/></g></g></g></g></g></g></g></g></svg>