<svg xmlns="http://www.w3.org/2000/svg" xmlns:xlink="http://www.w3.org/1999/xlink" width="640" zoomAndPan="magnify" viewBox="0 0 480 749.999995" height="1000" preserveAspectRatio="xMidYMid meet" version="1.0"><defs><clipPath id="0d986327c9"><path d="M 0 0 L 480 0 L 480 750 L 0 750 Z M 0 0 " clip-rule="nonzero"/></clipPath><clipPath id="a9d45ebb5b"><rect x="0" width="480" y="0" height="750"/></clipPath><clipPath id="be9277ab5a"><path d="M 13.605469 262.304688 L 111.230469 262.304688 L 111.230469 720.042969 L 13.605469 720.042969 Z M 13.605469 262.304688 " clip-rule="nonzero"/></clipPath><clipPath id="c22c414339"><path d="M 0.605469 0.304688 L 98.230469 0.304688 L 98.230469 458 L 0.605469 458 Z M 0.605469 0.304688 " clip-rule="nonzero"/></clipPath><clipPath id="1ecc5c5304"><rect x="0" width="99" y="0" height="459"/></clipPath><clipPath id="50b3edea31"><path d="M 144.527344 187.257812 L 293.753906 187.257812 L 293.753906 559.074219 L 144.527344 559.074219 Z M 144.527344 187.257812 " clip-rule="nonzero"/></clipPath><clipPath id="5eb8debfb3"><path d="M 0.527344 0.257812 L 149.753906 0.257812 L 149.753906 372.074219 L 0.527344 372.074219 Z M 0.527344 0.257812 " clip-rule="nonzero"/></clipPath><clipPath id="5d81ac2ad3"><rect x="0" width="150" y="0" height="373"/></clipPath><clipPath id="1c50b111c6"><path d="M 144.527344 187.261719 L 293.753906 187.261719 L 293.753906 559.074219 L 144.527344 559.074219 Z M 144.527344 187.261719 " clip-rule="nonzero"/></clipPath><clipPath id="6c8d028486"><path d="M 217.960938 497.976562 L 316.609375 497.976562 L 316.609375 596.621094 L 217.960938 596.621094 Z M 217.960938 497.976562 " clip-rule="nonzero"/></clipPath><clipPath id="954758e783"><path d="M 267.285156 497.976562 C 240.042969 497.976562 217.960938 520.058594 217.960938 547.296875 C 217.960938 574.539062 240.042969 596.621094 267.285156 596.621094 C 294.523438 596.621094 316.609375 574.539062 316.609375 547.296875 C 316.609375 520.058594 294.523438 497.976562 267.285156 497.976562 Z M 267.285156 497.976562 " clip-rule="nonzero"/></clipPath><clipPath id="3e1656ad7d"><path d="M 0.960938 0.976562 L 99.609375 0.976562 L 99.609375 99.621094 L 0.960938 99.621094 Z M 0.960938 0.976562 " clip-rule="nonzero"/></clipPath><clipPath id="2bf536e126"><path d="M 50.285156 0.976562 C 23.042969 0.976562 0.960938 23.058594 0.960938 50.296875 C 0.960938 77.539062 23.042969 99.621094 50.285156 99.621094 C 77.523438 99.621094 99.609375 77.539062 99.609375 50.296875 C 99.609375 23.058594 77.523438 0.976562 50.285156 0.976562 Z M 50.285156 0.976562 " clip-rule="nonzero"/></clipPath><clipPath id="2bd5cd0c25"><rect x="0" width="100" y="0" height="100"/></clipPath><clipPath id="902fb4df4b"><path d="M 217.960938 497.976562 L 316.597656 497.976562 L 316.597656 596.613281 L 217.960938 596.613281 Z M 217.960938 497.976562 " clip-rule="nonzero"/></clipPath><clipPath id="806cdb9cbd"><path d="M 267.28125 497.976562 C 240.042969 497.976562 217.960938 520.054688 217.960938 547.292969 C 217.960938 574.53125 240.042969 596.613281 267.28125 596.613281 C 294.515625 596.613281 316.597656 574.53125 316.597656 547.292969 C 316.597656 520.054688 294.515625 497.976562 267.28125 497.976562 Z M 267.28125 497.976562 " clip-rule="nonzero"/></clipPath><clipPath id="8392ce373f"><path d="M 219.144531 559.078125 L 313.296875 559.078125 L 313.296875 602.652344 L 219.144531 602.652344 Z M 219.144531 559.078125 " clip-rule="nonzero"/></clipPath><clipPath id="65ef042971"><path d="M 0.144531 0.078125 L 94.296875 0.078125 L 94.296875 43.652344 L 0.144531 43.652344 Z M 0.144531 0.078125 " clip-rule="nonzero"/></clipPath><clipPath id="d89cbed76b"><rect x="0" width="95" y="0" height="44"/></clipPath><clipPath id="d0602f311d"><path d="M 280.480469 502.5625 L 329.695312 502.5625 L 329.695312 602.652344 L 280.480469 602.652344 Z M 280.480469 502.5625 " clip-rule="nonzero"/></clipPath><clipPath id="8d2d38988f"><path d="M 0.480469 0.5625 L 49.695312 0.5625 L 49.695312 100.652344 L 0.480469 100.652344 Z M 0.480469 0.5625 " clip-rule="nonzero"/></clipPath><clipPath id="2d3d2f0870"><rect x="0" width="50" y="0" height="101"/></clipPath><clipPath id="ffac37d1a0"><path d="M 85.894531 139.074219 L 183.984375 139.074219 L 183.984375 237.164062 L 85.894531 237.164062 Z M 85.894531 139.074219 " clip-rule="nonzero"/></clipPath><clipPath id="a6a6946adc"><path d="M 134.941406 139.074219 C 107.851562 139.074219 85.894531 161.03125 85.894531 188.121094 C 85.894531 215.207031 107.851562 237.164062 134.941406 237.164062 C 162.027344 237.164062 183.984375 215.207031 183.984375 188.121094 C 183.984375 161.03125 162.027344 139.074219 134.941406 139.074219 Z M 134.941406 139.074219 " clip-rule="nonzero"/></clipPath><clipPath id="8b60d7c176"><path d="M 0.894531 0.0742188 L 98.984375 0.0742188 L 98.984375 98.164062 L 0.894531 98.164062 Z M 0.894531 0.0742188 " clip-rule="nonzero"/></clipPath><clipPath id="90ec30956f"><path d="M 49.941406 0.0742188 C 22.851562 0.0742188 0.894531 22.03125 0.894531 49.121094 C 0.894531 76.207031 22.851562 98.164062 49.941406 98.164062 C 77.027344 98.164062 98.984375 76.207031 98.984375 49.121094 C 98.984375 22.03125 77.027344 0.0742188 49.941406 0.0742188 Z M 49.941406 0.0742188 " clip-rule="nonzero"/></clipPath><clipPath id="d268b4c9c0"><rect x="0" width="99" y="0" height="99"/></clipPath><clipPath id="d7f7c66320"><path d="M 85.894531 139.074219 L 183.980469 139.074219 L 183.980469 237.160156 L 85.894531 237.160156 Z M 85.894531 139.074219 " clip-rule="nonzero"/></clipPath><clipPath id="68c68353f9"><path d="M 134.9375 139.074219 C 107.851562 139.074219 85.894531 161.03125 85.894531 188.117188 C 85.894531 215.203125 107.851562 237.160156 134.9375 237.160156 C 162.023438 237.160156 183.980469 215.203125 183.980469 188.117188 C 183.980469 161.03125 162.023438 139.074219 134.9375 139.074219 Z M 134.9375 139.074219 " clip-rule="nonzero"/></clipPath><clipPath id="3daf817897"><path d="M 152.875 195.484375 L 285 195.484375 L 285 237.15625 L 152.875 237.15625 Z M 152.875 195.484375 " clip-rule="nonzero"/></clipPath><clipPath id="7636c87cbb"><path d="M 0.875 0.484375 L 133 0.484375 L 133 42.15625 L 0.875 42.15625 Z M 0.875 0.484375 " clip-rule="nonzero"/></clipPath><clipPath id="ea74582c90"><rect x="0" width="133" y="0" height="43"/></clipPath><clipPath id="bdaccf7558"><path d="M 0 0 L 480 0 L 480 68 L 0 68 Z M 0 0 " clip-rule="nonzero"/></clipPath><clipPath id="270971bf48"><path d="M 503.367188 -98.070312 L 512.335938 -0.859375 L -224.421875 67.109375 L -233.390625 -30.105469 Z M 503.367188 -98.070312 " clip-rule="nonzero"/></clipPath><clipPath id="4e2984a3f5"><path d="M 0 0 L 480 0 L 480 67.199219 L 0 67.199219 Z M 0 0 " clip-rule="nonzero"/></clipPath><clipPath id="165a8a345b"><path d="M 503.367188 -98.070312 L 512.335938 -0.859375 L -224.421875 67.109375 L -233.390625 -30.105469 Z M 503.367188 -98.070312 " clip-rule="nonzero"/></clipPath><clipPath id="8ffb5d8a16"><rect x="0" width="480" y="0" height="68"/></clipPath><clipPath id="5920493bf2"><path d="M 447.554688 132.632812 L 467.332031 132.632812 L 467.332031 634.515625 L 447.554688 634.515625 Z M 447.554688 132.632812 " clip-rule="nonzero"/></clipPath><clipPath id="3bb2f1b08e"><path d="M 0.554688 0.632812 L 20.332031 0.632812 L 20.332031 502.515625 L 0.554688 502.515625 Z M 0.554688 0.632812 " clip-rule="nonzero"/></clipPath><clipPath id="ece785219e"><rect x="0" width="21" y="0" height="503"/></clipPath><clipPath id="10e8830808"><path d="M 222.527344 39.890625 L 467.332031 39.890625 L 467.332031 133.382812 L 222.527344 133.382812 Z M 222.527344 39.890625 " clip-rule="nonzero"/></clipPath><clipPath id="651f972b7c"><path d="M 0.527344 0.890625 L 245.332031 0.890625 L 245.332031 94.382812 L 0.527344 94.382812 Z M 0.527344 0.890625 " clip-rule="nonzero"/></clipPath><clipPath id="5381d9c9f5"><rect x="0" width="246" y="0" height="95"/></clipPath><clipPath id="2204fc147e"><path d="M 445.886719 15.609375 L 467.332031 15.609375 L 467.332031 108.3125 L 445.886719 108.3125 Z M 445.886719 15.609375 " clip-rule="nonzero"/></clipPath><clipPath id="1373ba9d31"><path d="M 0.886719 0.609375 L 22.332031 0.609375 L 22.332031 93.3125 L 0.886719 93.3125 Z M 0.886719 0.609375 " clip-rule="nonzero"/></clipPath><clipPath id="de010fd9dd"><rect x="0" width="23" y="0" height="94"/></clipPath><clipPath id="1cdb61f373"><path d="M 222 15 L 452 15 L 452 87 L 222 87 Z M 222 15 " clip-rule="nonzero"/></clipPath><clipPath id="6056c9c714"><path d="M 222.53125 35.195312 L 446.945312 15.609375 L 451.433594 67.050781 L 227.019531 86.636719 Z M 222.53125 35.195312 " clip-rule="nonzero"/></clipPath><clipPath id="f64a1f8421"><path d="M 0.480469 0.601562 L 229.441406 0.601562 L 229.441406 71.640625 L 0.480469 71.640625 Z M 0.480469 0.601562 " clip-rule="nonzero"/></clipPath><clipPath id="aeb0d9d560"><path d="M 0.53125 20.195312 L 224.945312 0.609375 L 229.433594 52.050781 L 5.019531 71.636719 Z M 0.53125 20.195312 " clip-rule="nonzero"/></clipPath><clipPath id="89f2c04329"><rect x="0" width="230" y="0" height="72"/></clipPath><clipPath id="ef119066b3"><path d="M 222.527344 35.769531 L 242.734375 35.769531 L 242.734375 112.425781 L 222.527344 112.425781 Z M 222.527344 35.769531 " clip-rule="nonzero"/></clipPath><clipPath id="78287a68ce"><path d="M 0.527344 0.769531 L 20.734375 0.769531 L 20.734375 77.425781 L 0.527344 77.425781 Z M 0.527344 0.769531 " clip-rule="nonzero"/></clipPath><clipPath id="8cf5e85e7f"><rect x="0" width="21" y="0" height="78"/></clipPath><clipPath id="b264923565"><path d="M 5 43 L 103 43 L 103 113 L 5 113 Z M 5 43 " clip-rule="nonzero"/></clipPath><clipPath id="46c5fd49a9"><path d="M 5.578125 50.484375 L 97.328125 43.050781 L 102.347656 105 L 10.597656 112.433594 Z M 5.578125 50.484375 " clip-rule="nonzero"/></clipPath><clipPath id="0aba2879a4"><path d="M 0.519531 0 L 97.480469 0 L 97.480469 69.558594 L 0.519531 69.558594 Z M 0.519531 0 " clip-rule="nonzero"/></clipPath><clipPath id="cea2517063"><path d="M 0.578125 7.484375 L 92.328125 0.0507812 L 97.347656 62 L 5.597656 69.433594 Z M 0.578125 7.484375 " clip-rule="nonzero"/></clipPath><clipPath id="d42ca012a9"><rect x="0" width="98" y="0" height="70"/></clipPath><clipPath id="4132cea4ba"><path d="M 275 580 L 480 580 L 480 750 L 275 750 Z M 275 580 " clip-rule="nonzero"/></clipPath><clipPath id="76ac0bd5b9"><path d="M 541.453125 580.863281 L 607.65625 652.613281 L 341.796875 897.914062 L 275.597656 826.164062 Z M 541.453125 580.863281 " clip-rule="nonzero"/></clipPath><clipPath id="b7fd0902bf"><path d="M 0.519531 0.800781 L 205 0.800781 L 205 170 L 0.519531 170 Z M 0.519531 0.800781 " clip-rule="nonzero"/></clipPath><clipPath id="c307040d5d"><path d="M 266.453125 0.863281 L 332.65625 72.613281 L 66.796875 317.914062 L 0.597656 246.164062 Z M 266.453125 0.863281 " clip-rule="nonzero"/></clipPath><clipPath id="a107b7dfec"><rect x="0" width="205" y="0" height="170"/></clipPath><clipPath id="bc292e1e37"><path d="M 200.210938 530.550781 L 212.195312 530.550781 L 212.195312 542.539062 L 200.210938 542.539062 Z M 200.210938 530.550781 " clip-rule="nonzero"/></clipPath><clipPath id="bf3d8496d3"><path d="M 206.203125 530.550781 C 202.894531 530.550781 200.210938 533.234375 200.210938 536.542969 C 200.210938 539.855469 202.894531 542.539062 206.203125 542.539062 C 209.515625 542.539062 212.195312 539.855469 212.195312 536.542969 C 212.195312 533.234375 209.515625 530.550781 206.203125 530.550781 Z M 206.203125 530.550781 " clip-rule="nonzero"/></clipPath><clipPath id="6a08a74fa0"><path d="M 0.210938 0.550781 L 12.195312 0.550781 L 12.195312 12.539062 L 0.210938 12.539062 Z M 0.210938 0.550781 " clip-rule="nonzero"/></clipPath><clipPath id="07ecd07677"><path d="M 6.203125 0.550781 C 2.894531 0.550781 0.210938 3.234375 0.210938 6.542969 C 0.210938 9.855469 2.894531 12.539062 6.203125 12.539062 C 9.515625 12.539062 12.195312 9.855469 12.195312 6.542969 C 12.195312 3.234375 9.515625 0.550781 6.203125 0.550781 Z M 6.203125 0.550781 " clip-rule="nonzero"/></clipPath><clipPath id="8441c6b654"><rect x="0" width="13" y="0" height="13"/></clipPath><clipPath id="245ec3e41f"><path d="M 207.15625 511.46875 L 219.144531 511.46875 L 219.144531 523.457031 L 207.15625 523.457031 Z M 207.15625 511.46875 " clip-rule="nonzero"/></clipPath><clipPath id="5baae7c5f8"><path d="M 213.148438 511.46875 C 209.839844 511.46875 207.15625 514.152344 207.15625 517.464844 C 207.15625 520.773438 209.839844 523.457031 213.148438 523.457031 C 216.460938 523.457031 219.144531 520.773438 219.144531 517.464844 C 219.144531 514.152344 216.460938 511.46875 213.148438 511.46875 Z M 213.148438 511.46875 " clip-rule="nonzero"/></clipPath><clipPath id="2016fd3635"><path d="M 0.15625 0.46875 L 12.144531 0.46875 L 12.144531 12.457031 L 0.15625 12.457031 Z M 0.15625 0.46875 " clip-rule="nonzero"/></clipPath><clipPath id="920be20b6f"><path d="M 6.148438 0.46875 C 2.839844 0.46875 0.15625 3.152344 0.15625 6.464844 C 0.15625 9.773438 2.839844 12.457031 6.148438 12.457031 C 9.460938 12.457031 12.144531 9.773438 12.144531 6.464844 C 12.144531 3.152344 9.460938 0.46875 6.148438 0.46875 Z M 6.148438 0.46875 " clip-rule="nonzero"/></clipPath><clipPath id="544cdfca08"><rect x="0" width="13" y="0" height="13"/></clipPath><clipPath id="9d37a4b1cc"><path d="M 222.527344 493.855469 L 234.515625 493.855469 L 234.515625 505.839844 L 222.527344 505.839844 Z M 222.527344 493.855469 " clip-rule="nonzero"/></clipPath><clipPath id="1364cbfef0"><path d="M 228.523438 493.855469 C 225.210938 493.855469 222.527344 496.539062 222.527344 499.847656 C 222.527344 503.15625 225.210938 505.839844 228.523438 505.839844 C 231.832031 505.839844 234.515625 503.15625 234.515625 499.847656 C 234.515625 496.539062 231.832031 493.855469 228.523438 493.855469 Z M 228.523438 493.855469 " clip-rule="nonzero"/></clipPath><clipPath id="51020d3c45"><path d="M 0.527344 0.855469 L 12.515625 0.855469 L 12.515625 12.839844 L 0.527344 12.839844 Z M 0.527344 0.855469 " clip-rule="nonzero"/></clipPath><clipPath id="c994621e1a"><path d="M 6.523438 0.855469 C 3.210938 0.855469 0.527344 3.539062 0.527344 6.847656 C 0.527344 10.15625 3.210938 12.839844 6.523438 12.839844 C 9.832031 12.839844 12.515625 10.15625 12.515625 6.847656 C 12.515625 3.539062 9.832031 0.855469 6.523438 0.855469 Z M 6.523438 0.855469 " clip-rule="nonzero"/></clipPath><clipPath id="0c9f1ab776"><rect x="0" width="13" y="0" height="13"/></clipPath><clipPath id="88e75402b1"><path d="M 240.179688 484.183594 L 252.167969 484.183594 L 252.167969 496.171875 L 240.179688 496.171875 Z M 240.179688 484.183594 " clip-rule="nonzero"/></clipPath><clipPath id="5979a5c7a7"><path d="M 246.175781 484.183594 C 242.863281 484.183594 240.179688 486.867188 240.179688 490.175781 C 240.179688 493.488281 242.863281 496.171875 246.175781 496.171875 C 249.484375 496.171875 252.167969 493.488281 252.167969 490.175781 C 252.167969 486.867188 249.484375 484.183594 246.175781 484.183594 Z M 246.175781 484.183594 " clip-rule="nonzero"/></clipPath><clipPath id="acdda1727d"><path d="M 0.179688 0.183594 L 12.167969 0.183594 L 12.167969 12.171875 L 0.179688 12.171875 Z M 0.179688 0.183594 " clip-rule="nonzero"/></clipPath><clipPath id="6e63e29e45"><path d="M 6.175781 0.183594 C 2.863281 0.183594 0.179688 2.867188 0.179688 6.175781 C 0.179688 9.488281 2.863281 12.171875 6.175781 12.171875 C 9.484375 12.171875 12.167969 9.488281 12.167969 6.175781 C 12.167969 2.867188 9.484375 0.183594 6.175781 0.183594 Z M 6.175781 0.183594 " clip-rule="nonzero"/></clipPath><clipPath id="e5f105ce3a"><rect x="0" width="13" y="0" height="13"/></clipPath><clipPath id="68cf4a196e"><path d="M 261.292969 480.292969 L 273.277344 480.292969 L 273.277344 492.277344 L 261.292969 492.277344 Z M 261.292969 480.292969 " clip-rule="nonzero"/></clipPath><clipPath id="7a458828e6"><path d="M 267.285156 480.292969 C 263.972656 480.292969 261.292969 482.976562 261.292969 486.285156 C 261.292969 489.59375 263.972656 492.277344 267.285156 492.277344 C 270.59375 492.277344 273.277344 489.59375 273.277344 486.285156 C 273.277344 482.976562 270.59375 480.292969 267.285156 480.292969 Z M 267.285156 480.292969 " clip-rule="nonzero"/></clipPath><clipPath id="bb00325794"><path d="M 0.292969 0.292969 L 12.277344 0.292969 L 12.277344 12.277344 L 0.292969 12.277344 Z M 0.292969 0.292969 " clip-rule="nonzero"/></clipPath><clipPath id="c223337a3e"><path d="M 6.285156 0.292969 C 2.972656 0.292969 0.292969 2.976562 0.292969 6.285156 C 0.292969 9.59375 2.972656 12.277344 6.285156 12.277344 C 9.59375 12.277344 12.277344 9.59375 12.277344 6.285156 C 12.277344 2.976562 9.59375 0.292969 6.285156 0.292969 Z M 6.285156 0.292969 " clip-rule="nonzero"/></clipPath><clipPath id="98779e1dee"><rect x="0" width="13" y="0" height="13"/></clipPath><clipPath id="7dd2389727"><path d="M 154.082031 224.699219 L 210.589844 224.699219 L 210.589844 229.171875 L 154.082031 229.171875 Z M 154.082031 224.699219 " clip-rule="nonzero"/></clipPath><clipPath id="24f790b97f"><path d="M 156.320312 224.699219 L 208.351562 224.699219 C 209.585938 224.699219 210.589844 225.699219 210.589844 226.933594 C 210.589844 228.171875 209.585938 229.171875 208.351562 229.171875 L 156.320312 229.171875 C 155.085938 229.171875 154.082031 228.171875 154.082031 226.933594 C 154.082031 225.699219 155.085938 224.699219 156.320312 224.699219 Z M 156.320312 224.699219 " clip-rule="nonzero"/></clipPath><clipPath id="00ea49bae3"><path d="M 0.0820312 0.699219 L 56.589844 0.699219 L 56.589844 5.171875 L 0.0820312 5.171875 Z M 0.0820312 0.699219 " clip-rule="nonzero"/></clipPath><clipPath id="8ed3540f7c"><path d="M 2.320312 0.699219 L 54.351562 0.699219 C 55.585938 0.699219 56.589844 1.699219 56.589844 2.933594 C 56.589844 4.171875 55.585938 5.171875 54.351562 5.171875 L 2.320312 5.171875 C 1.085938 5.171875 0.0820312 4.171875 0.0820312 2.933594 C 0.0820312 1.699219 1.085938 0.699219 2.320312 0.699219 Z M 2.320312 0.699219 " clip-rule="nonzero"/></clipPath><clipPath id="c4511ee1f7"><rect x="0" width="57" y="0" height="6"/></clipPath><clipPath id="c5ef900d76"><path d="M 149.117188 195.484375 L 284.828125 195.484375 L 284.828125 224.6875 L 149.117188 224.6875 Z M 149.117188 195.484375 " clip-rule="nonzero"/></clipPath><clipPath id="ad19745fbd"><path d="M 0.117188 0.484375 L 135.828125 0.484375 L 135.828125 29.6875 L 0.117188 29.6875 Z M 0.117188 0.484375 " clip-rule="nonzero"/></clipPath><clipPath id="6e2a901369"><rect x="0" width="136" y="0" height="30"/></clipPath><clipPath id="8d61a0c787"><path d="M 178.613281 195.96875 L 183.089844 195.96875 L 183.089844 212.019531 L 178.613281 212.019531 Z M 178.613281 195.96875 " clip-rule="nonzero"/></clipPath><clipPath id="be1b17d4e6"><path d="M 178.613281 209.78125 L 178.613281 198.210938 C 178.613281 196.976562 179.617188 195.972656 180.851562 195.972656 C 182.089844 195.972656 183.089844 196.976562 183.089844 198.210938 L 183.089844 209.78125 C 183.089844 211.015625 182.089844 212.019531 180.851562 212.019531 C 179.617188 212.019531 178.613281 211.015625 178.613281 209.78125 Z M 178.613281 209.78125 " clip-rule="nonzero"/></clipPath><clipPath id="9c9b56720d"><path d="M 0.613281 0.96875 L 5.089844 0.96875 L 5.089844 17.019531 L 0.613281 17.019531 Z M 0.613281 0.96875 " clip-rule="nonzero"/></clipPath><clipPath id="d0176caf2f"><path d="M 0.613281 14.78125 L 0.613281 3.210938 C 0.613281 1.976562 1.617188 0.972656 2.851562 0.972656 C 4.089844 0.972656 5.089844 1.976562 5.089844 3.210938 L 5.089844 14.78125 C 5.089844 16.015625 4.089844 17.019531 2.851562 17.019531 C 1.617188 17.019531 0.613281 16.015625 0.613281 14.78125 Z M 0.613281 14.78125 " clip-rule="nonzero"/></clipPath><clipPath id="27933db524"><rect x="0" width="6" y="0" height="18"/></clipPath><clipPath id="3598845571"><path d="M 183.078125 195.488281 L 285.003906 195.488281 L 285.003906 202.117188 L 183.078125 202.117188 Z M 183.078125 195.488281 " clip-rule="nonzero"/></clipPath><clipPath id="83f3dd95ea"><path d="M 0.078125 0.488281 L 102.003906 0.488281 L 102.003906 7.117188 L 0.078125 7.117188 Z M 0.078125 0.488281 " clip-rule="nonzero"/></clipPath><clipPath id="72034c8021"><rect x="0" width="103" y="0" height="8"/></clipPath><clipPath id="bc6d9d6e29"><path d="M 183.078125 202.117188 L 285.003906 202.117188 L 285.003906 208.335938 L 183.078125 208.335938 Z M 183.078125 202.117188 " clip-rule="nonzero"/></clipPath><clipPath id="b2f13f2063"><path d="M 0.078125 0.117188 L 102.003906 0.117188 L 102.003906 6.335938 L 0.078125 6.335938 Z M 0.078125 0.117188 " clip-rule="nonzero"/></clipPath><clipPath id="e3d1926e6f"><rect x="0" width="103" y="0" height="7"/></clipPath><clipPath id="f2bc0c6bcd"><path d="M 210.089844 213.882812 L 285.011719 213.882812 L 285.011719 219.140625 L 210.089844 219.140625 Z M 210.089844 213.882812 " clip-rule="nonzero"/></clipPath><clipPath id="63ea905456"><path d="M 0.0898438 0.882812 L 75.011719 0.882812 L 75.011719 6.140625 L 0.0898438 6.140625 Z M 0.0898438 0.882812 " clip-rule="nonzero"/></clipPath><clipPath id="5c39873047"><rect x="0" width="76" y="0" height="7"/></clipPath><clipPath id="3de7fd9def"><path d="M 210.089844 219.691406 L 285.011719 219.691406 L 285.011719 224.953125 L 210.089844 224.953125 Z M 210.089844 219.691406 " clip-rule="nonzero"/></clipPath><clipPath id="77d144c041"><path d="M 0.0898438 0.691406 L 75.011719 0.691406 L 75.011719 5.953125 L 0.0898438 5.953125 Z M 0.0898438 0.691406 " clip-rule="nonzero"/></clipPath><clipPath id="ad8099cbf2"><rect x="0" width="76" y="0" height="6"/></clipPath></defs><rect x="-48" width="576" fill="#ffffff" y="-74.999999" height="899.999994" fill-opacity="1"/><rect x="-48" width="576" fill="#ffffff" y="-74.999999" height="899.999994" fill-opacity="1"/><g transform="matrix(1, 0, 0, 1, 0, -0.000000000000042435)"><g clip-path="url(#a9d45ebb5b)"><g clip-path="url(#0d986327c9)"><rect x="-105.6" width="691.2" fill="#b4b4b4" height="1079.999992" y="-164.999999" fill-opacity="1"/></g></g></g><g clip-path="url(#be9277ab5a)"><g transform="matrix(1, 0, 0, 1, 13, 262)"><g clip-path="url(#1ecc5c5304)"><g clip-path="url(#c22c414339)"><path fill="#087958" d="M 0.605469 0.304688 L 98.230469 0.304688 L 98.230469 457.921875 L 0.605469 457.921875 Z M 0.605469 0.304688 " fill-opacity="1" fill-rule="nonzero"/></g></g></g></g><g clip-path="url(#50b3edea31)"><g transform="matrix(1, 0, 0, 1, 144, 187)"><g clip-path="url(#5d81ac2ad3)"><g clip-path="url(#5eb8debfb3)"><path fill="#0062ff" d="M 0.527344 372.074219 L 0.527344 0.167969 L 149.753906 0.167969 L 149.753906 372.074219 Z M 0.527344 372.074219 " fill-opacity="1" fill-rule="nonzero"/></g></g></g></g><g clip-path="url(#1c50b111c6)"><path stroke-linecap="butt" transform="matrix(0, -0.75, 0.75, 0, 144.527044, 559.074257)" fill="none" stroke-linejoin="miter" d="M 0.0000506726 0.00039933 L 495.750075 0.00039933 L 495.750075 198.969159 L 0.0000506726 198.969159 Z M 0.0000506726 0.00039933 " stroke="#ffffff" stroke-width="22" stroke-opacity="1" stroke-miterlimit="4"/></g><g clip-path="url(#6c8d028486)"><g clip-path="url(#954758e783)"><g transform="matrix(1, 0, 0, 1, 217, 497)"><g clip-path="url(#2bd5cd0c25)"><g clip-path="url(#3e1656ad7d)"><g clip-path="url(#2bf536e126)"><path fill="#d1cccc" d="M 0.960938 0.976562 L 99.609375 0.976562 L 99.609375 99.621094 L 0.960938 99.621094 Z M 0.960938 0.976562 " fill-opacity="1" fill-rule="nonzero"/></g></g></g></g></g></g><g clip-path="url(#902fb4df4b)"><g clip-path="url(#806cdb9cbd)"><path stroke-linecap="butt" transform="matrix(0.75, 0, 0, 0.75, 217.961182, 497.974988)" fill="none" stroke-linejoin="miter" d="M 65.760094 0.00209969 C 29.442383 0.00209969 -0.000326365 29.439601 -0.000326365 65.757311 C -0.000326365 102.075021 29.442383 131.517731 65.760094 131.517731 C 102.072595 131.517731 131.515305 102.075021 131.515305 65.757311 C 131.515305 29.439601 102.072595 0.00209969 65.760094 0.00209969 Z M 65.760094 0.00209969 " stroke="#ffffff" stroke-width="12" stroke-opacity="1" stroke-miterlimit="4"/></g></g><g clip-path="url(#8392ce373f)"><g transform="matrix(1, 0, 0, 1, 219, 559)"><g clip-path="url(#d89cbed76b)"><g clip-path="url(#65ef042971)"><path fill="#ffffff" d="M 0.144531 0.078125 L 94.265625 0.078125 L 94.265625 43.652344 L 0.144531 43.652344 Z M 0.144531 0.078125 " fill-opacity="1" fill-rule="nonzero"/></g></g></g></g><g clip-path="url(#d0602f311d)"><g transform="matrix(1, 0, 0, 1, 280, 502)"><g clip-path="url(#2d3d2f0870)"><g clip-path="url(#8d2d38988f)"><path fill="#ffffff" d="M 0.480469 0.5625 L 49.695312 0.5625 L 49.695312 100.722656 L 0.480469 100.722656 Z M 0.480469 0.5625 " fill-opacity="1" fill-rule="nonzero"/></g></g></g></g><g clip-path="url(#ffac37d1a0)"><g clip-path="url(#a6a6946adc)"><g transform="matrix(1, 0, 0, 1, 85, 139)"><g clip-path="url(#d268b4c9c0)"><g clip-path="url(#8b60d7c176)"><g clip-path="url(#90ec30956f)"><path fill="#4681df" d="M 0.894531 0.0742188 L 98.984375 0.0742188 L 98.984375 98.164062 L 0.894531 98.164062 Z M 0.894531 0.0742188 " fill-opacity="1" fill-rule="nonzero"/></g></g></g></g></g></g><g clip-path="url(#d7f7c66320)"><g clip-path="url(#68c68353f9)"><path stroke-linecap="butt" transform="matrix(0.75, 0, 0, 0.75, 85.89481, 139.073713)" fill="none" stroke-linejoin="miter" d="M 65.390257 0.000674037 C 29.275672 0.000674037 -0.000371013 29.276717 -0.000371013 65.391302 C -0.000371013 101.505887 29.275672 130.78193 65.390257 130.78193 C 101.504842 130.78193 130.780885 101.505887 130.780885 65.391302 C 130.780885 29.276717 101.504842 0.000674037 65.390257 0.000674037 Z M 65.390257 0.000674037 " stroke="#ffffff" stroke-width="22" stroke-opacity="1" stroke-miterlimit="4"/></g></g><g clip-path="url(#3daf817897)"><g transform="matrix(1, 0, 0, 1, 152, 195)"><g clip-path="url(#ea74582c90)"><g clip-path="url(#7636c87cbb)"><path fill="#0062ff" d="M 133 42.15625 L 0.828125 42.15625 L 0.828125 0.484375 L 133 0.484375 Z M 133 42.15625 " fill-opacity="1" fill-rule="nonzero"/></g></g></g></g><g clip-path="url(#bdaccf7558)"><g clip-path="url(#270971bf48)"><g transform="matrix(1, 0, 0, 1, 0, -0.000000000000042435)"><g clip-path="url(#8ffb5d8a16)"><g clip-path="url(#4e2984a3f5)"><g clip-path="url(#165a8a345b)"><path fill="#ffffff" d="M 503.367188 -98.070312 L 512.335938 -0.859375 L -224.347656 67.101562 L -233.3125 -30.109375 Z M 503.367188 -98.070312 " fill-opacity="1" fill-rule="nonzero"/></g></g></g></g></g></g><g clip-path="url(#5920493bf2)"><g transform="matrix(1, 0, 0, 1, 447, 132)"><g clip-path="url(#ece785219e)"><g clip-path="url(#3bb2f1b08e)"><path fill="#087958" d="M 0.554688 0.632812 L 20.332031 0.632812 L 20.332031 502.535156 L 0.554688 502.535156 Z M 0.554688 0.632812 " fill-opacity="1" fill-rule="nonzero"/></g></g></g></g><g clip-path="url(#10e8830808)"><g transform="matrix(1, 0, 0, 1, 222, 39)"><g clip-path="url(#5381d9c9f5)"><g clip-path="url(#651f972b7c)"><path fill="#087958" d="M 0.527344 0.890625 L 245.214844 0.890625 L 245.214844 94.382812 L 0.527344 94.382812 Z M 0.527344 0.890625 " fill-opacity="1" fill-rule="nonzero"/></g></g></g></g><g clip-path="url(#2204fc147e)"><g transform="matrix(1, 0, 0, 1, 445, 15)"><g clip-path="url(#de010fd9dd)"><g clip-path="url(#1373ba9d31)"><path fill="#087958" d="M 0.886719 0.609375 L 22.332031 0.609375 L 22.332031 93.347656 L 0.886719 93.347656 Z M 0.886719 0.609375 " fill-opacity="1" fill-rule="nonzero"/></g></g></g></g><g clip-path="url(#1cdb61f373)"><g clip-path="url(#6056c9c714)"><g transform="matrix(1, 0, 0, 1, 222, 15)"><g clip-path="url(#89f2c04329)"><g clip-path="url(#f64a1f8421)"><g clip-path="url(#aeb0d9d560)"><path fill="#087958" d="M 0.53125 20.195312 L 224.980469 0.605469 L 229.46875 52.046875 L 5.019531 71.636719 Z M 0.53125 20.195312 " fill-opacity="1" fill-rule="nonzero"/></g></g></g></g></g></g><g clip-path="url(#ef119066b3)"><g transform="matrix(1, 0, 0, 1, 222, 35)"><g clip-path="url(#8cf5e85e7f)"><g clip-path="url(#78287a68ce)"><path fill="#087958" d="M 0.527344 77.425781 L 0.527344 0.78125 L 20.734375 0.78125 L 20.734375 77.425781 Z M 0.527344 77.425781 " fill-opacity="1" fill-rule="nonzero"/></g></g></g></g><g clip-path="url(#b264923565)"><g clip-path="url(#46c5fd49a9)"><g transform="matrix(1, 0, 0, 1, 5, 43)"><g clip-path="url(#d42ca012a9)"><g clip-path="url(#0aba2879a4)"><g clip-path="url(#cea2517063)"><path fill="#ffffff" d="M 0.578125 7.484375 L 92.292969 0.0507812 L 97.3125 62 L 5.597656 69.433594 Z M 0.578125 7.484375 " fill-opacity="1" fill-rule="nonzero"/></g></g></g></g></g></g><g clip-path="url(#4132cea4ba)"><g clip-path="url(#76ac0bd5b9)"><g transform="matrix(1, 0, 0, 1, 275, 580)"><g clip-path="url(#a107b7dfec)"><g clip-path="url(#b7fd0902bf)"><g clip-path="url(#c307040d5d)"><path fill="#ffffff" d="M 266.453125 0.863281 L 332.65625 72.613281 L 66.675781 318.023438 L 0.476562 246.273438 Z M 266.453125 0.863281 " fill-opacity="1" fill-rule="nonzero"/></g></g></g></g></g></g><g clip-path="url(#bc292e1e37)"><g clip-path="url(#bf3d8496d3)"><g transform="matrix(1, 0, 0, 1, 200, 530)"><g clip-path="url(#8441c6b654)"><g clip-path="url(#6a08a74fa0)"><g clip-path="url(#07ecd07677)"><path fill="#5d92e8" d="M 0.210938 0.550781 L 12.195312 0.550781 L 12.195312 12.539062 L 0.210938 12.539062 Z M 0.210938 0.550781 " fill-opacity="1" fill-rule="nonzero"/></g></g></g></g></g></g><g clip-path="url(#245ec3e41f)"><g clip-path="url(#5baae7c5f8)"><g transform="matrix(1, 0, 0, 1, 207, 511)"><g clip-path="url(#544cdfca08)"><g clip-path="url(#2016fd3635)"><g clip-path="url(#920be20b6f)"><path fill="#5d92e8" d="M 0.15625 0.46875 L 12.144531 0.46875 L 12.144531 12.457031 L 0.15625 12.457031 Z M 0.15625 0.46875 " fill-opacity="1" fill-rule="nonzero"/></g></g></g></g></g></g><g clip-path="url(#9d37a4b1cc)"><g clip-path="url(#1364cbfef0)"><g transform="matrix(1, 0, 0, 1, 222, 493)"><g clip-path="url(#0c9f1ab776)"><g clip-path="url(#51020d3c45)"><g clip-path="url(#c994621e1a)"><path fill="#5d92e8" d="M 0.527344 0.855469 L 12.515625 0.855469 L 12.515625 12.839844 L 0.527344 12.839844 Z M 0.527344 0.855469 " fill-opacity="1" fill-rule="nonzero"/></g></g></g></g></g></g><g clip-path="url(#88e75402b1)"><g clip-path="url(#5979a5c7a7)"><g transform="matrix(1, 0, 0, 1, 240, 484)"><g clip-path="url(#e5f105ce3a)"><g clip-path="url(#acdda1727d)"><g clip-path="url(#6e63e29e45)"><path fill="#5d92e8" d="M 0.179688 0.183594 L 12.167969 0.183594 L 12.167969 12.171875 L 0.179688 12.171875 Z M 0.179688 0.183594 " fill-opacity="1" fill-rule="nonzero"/></g></g></g></g></g></g><g clip-path="url(#68cf4a196e)"><g clip-path="url(#7a458828e6)"><g transform="matrix(1, 0, 0, 1, 261, 480)"><g clip-path="url(#98779e1dee)"><g clip-path="url(#bb00325794)"><g clip-path="url(#c223337a3e)"><path fill="#5d92e8" d="M 0.292969 0.292969 L 12.277344 0.292969 L 12.277344 12.277344 L 0.292969 12.277344 Z M 0.292969 0.292969 " fill-opacity="1" fill-rule="nonzero"/></g></g></g></g></g></g><g clip-path="url(#7dd2389727)"><g clip-path="url(#24f790b97f)"><g transform="matrix(1, 0, 0, 1, 154, 224)"><g clip-path="url(#c4511ee1f7)"><g clip-path="url(#00ea49bae3)"><g clip-path="url(#8ed3540f7c)"><path fill="#b4b4b4" d="M 0.0820312 0.699219 L 56.589844 0.699219 L 56.589844 5.171875 L 0.0820312 5.171875 Z M 0.0820312 0.699219 " fill-opacity="1" fill-rule="nonzero"/></g></g></g></g></g></g><g clip-path="url(#c5ef900d76)"><g transform="matrix(1, 0, 0, 1, 149, 195)"><g clip-path="url(#6e2a901369)"><g clip-path="url(#ad19745fbd)"><path fill="#4681df" d="M 135.828125 29.6875 L 0.0820312 29.6875 L 0.0820312 0.484375 L 135.828125 0.484375 Z M 135.828125 29.6875 " fill-opacity="1" fill-rule="nonzero"/></g></g></g></g><g clip-path="url(#8d61a0c787)"><g clip-path="url(#be1b17d4e6)"><g transform="matrix(1, 0, 0, 1, 178, 195)"><g clip-path="url(#27933db524)"><g clip-path="url(#9c9b56720d)"><g clip-path="url(#d0176caf2f)"><path fill="#b4b4b4" d="M 0.613281 17.019531 L 0.613281 0.96875 L 5.089844 0.96875 L 5.089844 17.019531 Z M 0.613281 17.019531 " fill-opacity="1" fill-rule="nonzero"/></g></g></g></g></g></g><g clip-path="url(#3598845571)"><g transform="matrix(1, 0, 0, 1, 183, 195)"><g clip-path="url(#72034c8021)"><g clip-path="url(#83f3dd95ea)"><path fill="#7eaaf1" d="M 102.003906 7.117188 L 0.0703125 7.117188 L 0.0703125 0.488281 L 102.003906 0.488281 Z M 102.003906 7.117188 " fill-opacity="1" fill-rule="nonzero"/></g></g></g></g><g clip-path="url(#bc6d9d6e29)"><g transform="matrix(1, 0, 0, 1, 183, 202)"><g clip-path="url(#e3d1926e6f)"><g clip-path="url(#b2f13f2063)"><path fill="#5f97f1" d="M 102.003906 6.335938 L 0.0742188 6.335938 L 0.0742188 0.117188 L 102.003906 0.117188 Z M 102.003906 6.335938 " fill-opacity="1" fill-rule="nonzero"/></g></g></g></g><g clip-path="url(#f2bc0c6bcd)"><g transform="matrix(1, 0, 0, 1, 210, 213)"><g clip-path="url(#5c39873047)"><g clip-path="url(#63ea905456)"><path fill="#4279d1" d="M 75.011719 6.140625 L 0.0820312 6.140625 L 0.0820312 0.882812 L 75.011719 0.882812 Z M 75.011719 6.140625 " fill-opacity="1" fill-rule="nonzero"/></g></g></g></g><g clip-path="url(#3de7fd9def)"><g transform="matrix(1, 0, 0, 1, 210, 219)"><g clip-path="url(#ad8099cbf2)"><g clip-path="url(#77d144c041)"><path fill="#186cf1" d="M 75.011719 5.953125 L 0.0820312 5.953125 L 0.0820312 0.691406 L 75.011719 0.691406 Z M 75.011719 5.953125 " fill-opacity="1" fill-rule="nonzero"/></g></g></g></g></svg>